<?xml version="1.0" encoding="UTF-8" standalone="no"?>
<!-- Created with Inkscape (http://www.inkscape.org/) -->

<svg
   xmlns:dc="http://purl.org/dc/elements/1.1/"
   xmlns:cc="http://creativecommons.org/ns#"
   xmlns:rdf="http://www.w3.org/1999/02/22-rdf-syntax-ns#"
   xmlns:svg="http://www.w3.org/2000/svg"
   xmlns="http://www.w3.org/2000/svg"
   xmlns:xlink="http://www.w3.org/1999/xlink"
   xmlns:sodipodi="http://sodipodi.sourceforge.net/DTD/sodipodi-0.dtd"
   xmlns:inkscape="http://www.inkscape.org/namespaces/inkscape"
   width="3200"
   height="1750"
   id="svg2985"
   version="1.1"
   inkscape:version="0.48.5 r10040"
   sodipodi:docname="desheuresdehors-logo.svg"
   inkscape:export-filename="/Users/willsabido/Google Drive/Web iSabi/Clients/Des Heures Dehors/draft images/logo/desheuresdehors-logo-inverted-again.png"
   inkscape:export-xdpi="22.5"
   inkscape:export-ydpi="22.5">
  <title
     id="title4158">Des Heures Dehors logo</title>
  <defs
     id="defs2987">
    <color-profile
       name="sRGB-IEC61966-2.1"
       xlink:href="/System/Library/ColorSync/Profiles/sRGB Profile.icc"
       id="color-profile4156" />
  </defs>
  <sodipodi:namedview
     inkscape:document-units="mm"
     pagecolor="#ffffff"
     bordercolor="#666666"
     borderopacity="1.0"
     inkscape:pageopacity="0.0"
     inkscape:pageshadow="2"
     inkscape:zoom="0.35355339"
     inkscape:cx="1914.4482"
     inkscape:cy="845.02709"
     inkscape:current-layer="layer20"
     id="namedview2989"
     showgrid="false"
     inkscape:window-width="1920"
     inkscape:window-height="1031"
     inkscape:window-x="0"
     inkscape:window-y="0"
     inkscape:window-maximized="1"
     units="px"
     fit-margin-left="0"
     inkscape:snap-grids="false"
     inkscape:snap-to-guides="false"
     showborder="false"
     inkscape:showpageshadow="false" />
  <metadata
     id="metadata2991">
    <rdf:RDF>
      <cc:Work
         rdf:about="">
        <dc:format>image/svg+xml</dc:format>
        <dc:type
           rdf:resource="http://purl.org/dc/dcmitype/StillImage" />
        <dc:title>Des Heures Dehors logo</dc:title>
        <cc:license
           rdf:resource="" />
        <dc:description>Daniel &amp; Helene Deniaud-Powell, Des Heures Dehors</dc:description>
        <dc:rights>
          <cc:Agent>
            <dc:title>Daniel &amp; Helene Deniaud-Powell, Des Heures Dehors</dc:title>
          </cc:Agent>
        </dc:rights>
        <dc:creator>
          <cc:Agent>
            <dc:title>Will Sabido, Webi Sabi</dc:title>
          </cc:Agent>
        </dc:creator>
        <dc:date>5th March 2015</dc:date>
        <dc:language>fr-FR</dc:language>
        <dc:subject>
          <rdf:Bag>
            <rdf:li>Borage</rdf:li>
            <rdf:li>Des Heures Dehors</rdf:li>
            <rdf:li>Logo</rdf:li>
          </rdf:Bag>
        </dc:subject>
        <dc:contributor>
          <cc:Agent>
            <dc:title>Daniel &amp; Helene Deniaud-Powell (Des Heures Dehors), Will Sabido (Webi Sabi)</dc:title>
          </cc:Agent>
        </dc:contributor>
      </cc:Work>
    </rdf:RDF>
  </metadata>
  <g
     inkscape:groupmode="layer"
     id="layer1"
     inkscape:label="leaves"
     style="display:none">
    <path
       d="m 846.43161,1019.1004 c 0,0 -0.65959,0 -0.65959,0 0,0 0.65959,0 0.65959,0 z m 48.61274,-139.92835 c 0.39466,-0.87072 1.10371,-1.2168 0.85857,-2.09346 -0.22646,-0.80988 -1.03555,-0.43385 -1.62039,-0.7161 -0.49689,-0.24038 -0.88605,-0.6383 -1.29719,-0.97342 -0.21657,-0.17655 -0.51337,-0.31219 -0.54416,-0.6064 -0.0154,-0.15558 0.45182,-1.10507 0.56615,-1.25367 0,0 0.57384,-0.58447 0.57384,-0.58447 0.55955,-0.60938 0.3188,-0.74301 1.33017,-0.75502 0.25615,-0.72704 0.76623,-0.33308 1.27521,-1.30054 0.24843,-0.47176 0.41334,-1.26663 0.46501,-1.79123 0,-0.38199 -0.1781,-0.76202 0,-1.0652 0,0 1.80837,-1.25167 1.80837,-1.25167 0.63319,-0.47076 1.48187,-1.46612 2.21402,-1.78727 0.42213,-0.1835 0.98608,-0.12668 1.35215,-0.27528 0,0 1.56982,-0.81185 1.56982,-0.81185 0,0 1.97876,0 1.97876,0 0.4826,-0.10074 1.81497,-0.74405 2.63836,-0.79291 0,0 0,-0.29918 0,-0.29918 0.92342,-0.0222 0.77391,-0.11971 1.22243,-0.71115 0,0 0.42983,-0.51363 0.42983,-0.51363 0,0 0.59144,-2.15728 0.59144,-2.15728 0.17918,-0.30119 1.07293,-1.47909 1.34335,-1.70346 0,0 1.54454,-1.07317 1.54454,-1.07317 0.28473,-0.27228 0.33419,-0.50966 0.52327,-0.78992 0.30122,-0.44682 0.50459,-0.30221 0.39136,-0.93055 0.35618,-0.21641 0.31551,-0.32712 0.32979,-0.69814 -0.81348,-0.12167 -0.94101,-0.59143 -1.32687,-1.15292 0,0 -0.57274,-0.66625 -0.57274,-0.66625 0,0 -0.23634,-0.95649 -0.23634,-0.95649 -0.21437,-0.65823 -0.51559,-1.31451 -0.54857,-2.01164 -0.0142,-0.29923 0.0572,-0.40393 -0.12093,-0.69818 -0.23195,-0.38098 -0.64529,-0.57943 -0.75632,-0.82382 -0.13192,-0.28821 0.0615,-0.58243 -0.066,-1.1709 0,0 0.68707,-0.6353 0.68707,-0.6353 0,0 1.2917,-0.98839 1.2917,-0.98839 0,0 0.21766,-0.44283 0.21766,-0.44283 0,0 0.44192,-0.72607 0.44192,-0.72607 0.21436,-0.0369 0.34849,-0.0538 0.54966,-0.1446 0.24185,-0.10971 1.70613,-0.9904 1.88313,-1.18088 0,0 1.03445,-1.2477 1.03445,-1.2477 0.68267,-0.59044 2.32724,-1.41025 2.32065,-2.41361 -0.002,-0.20244 -0.10444,-0.41189 -0.18139,-0.5984 0.53207,-0.26531 0.87505,-0.82581 1.64897,-1.20083 0,0 0.54965,-0.20745 0.54965,-0.20745 0,0 0.6596,-0.36702 0.6596,-0.36702 0,0 0.76951,-0.34109 0.76951,-0.34109 0,0 0.98939,-0.6084 0.98939,-0.6084 0.42433,-0.21941 0.91353,-0.34609 1.29059,-0.6393 0.26933,-0.20845 0.38916,-0.46776 0.63101,-0.70415 0.38036,-0.37501 0.6431,-0.46375 1.10591,-1.04622 0.31881,-0.40092 0.20557,-0.66123 0.52437,-0.81184 0,0 3.90476,-0.61838 3.90476,-0.61838 0,0 2.56581,-1.43918 2.56581,-1.43918 0.86186,-0.30718 2.27997,-0.11967 3.05938,-0.44182 0.476,-0.19747 0.78491,-0.48673 1.20924,-0.74605 0.39466,-0.24134 1.2994,-0.75296 1.6039,-1.03722 0.3243,-0.30322 0.72555,-1.11607 1.09162,-1.27664 0.3243,-0.1426 0.79481,0.0588 1.15208,0.0967 0,0 2.52843,0 2.52843,0 0,0 2.19862,0 2.19862,0 0.76623,0.0369 1.12021,0.26232 1.97877,0 0.69696,-0.23337 1.40712,-0.94048 2.20852,-1.32247 0,0 0.6398,-0.20844 0.6398,-0.20844 0.71785,-0.27929 1.24552,-0.80889 1.54894,-1.44219 0,0 2.19862,0.22638 2.19862,0.22638 0,0 0.87945,0.26832 0.87945,0.26832 0,0 1.64898,0 1.64898,0 0,0 1.7589,0.25531 1.7589,0.25531 0,0 1.64897,-0.32715 1.64897,-0.32715 0,0 1.4291,-0.42286 1.4291,-0.42286 0.16051,-0.40292 0.3298,-0.37502 0.76952,-0.39895 0.24515,-0.66724 0.75524,-0.73705 1.05205,-1.131 0,0 0.26602,-0.51964 0.26602,-0.51964 0.0737,-0.10369 0.63541,-0.59539 1.07513,-1.2417 0.3386,-0.49966 0.35618,-0.77093 0.57496,-1.29657 1.99085,0.23838 2.0733,-0.19748 3.40787,-0.19948 1.5841,-0.004 2.92087,-0.26928 4.35107,-0.91158 0.44852,-0.20145 0.93223,-0.47973 1.25872,-0.82778 0.26054,-0.27829 0.4881,-0.76799 0.88605,-0.86172 0,0 1.30928,0 1.30928,0 0,0 3.40787,-0.33612 3.40787,-0.33612 0.51448,-0.1107 1.32137,-0.32812 1.7589,-0.57747 0.28143,-0.16057 0.91353,-0.65827 1.13009,-0.70414 0.22427,-0.0668 0.51778,0.0268 0.84868,0 0,0 2.30636,-0.34008 2.30636,-0.34008 0.48039,-0.13864 0.4672,-0.28725 0.81019,-0.54056 0.28912,-0.21245 1.15868,-0.77299 1.32577,-0.9894 0,0 0.39466,-0.89265 0.39466,-0.89265 0.74423,0.12167 1.47857,0.26031 2.19863,0.47376 0.43312,0.12764 0.74314,0.36005 1.20924,0.41089 0.79041,0.0858 1.53904,-0.28521 1.97876,-0.22041 0,0 1.64898,0.6024 1.64898,0.6024 0.85416,0.16057 2.214,-0.31816 2.96814,-0.6682 0.43093,0.37598 0.74864,0.39495 1.31914,0.49865 0.3892,1.25171 1.5226,1.18487 1.914,1.39032 0,0 0.4177,0.29622 0.4177,0.29622 0.2957,0.18751 0.9531,0.50766 1.2961,0.59743 0,0 3.188,0.34009 3.188,0.34009 0.609,0.13364 0.443,0.37801 1.649,0.46775 0,0 0.2198,0.69818 0.2198,0.69818 0,0 0.6596,-0.19948 0.6596,-0.19948 0.04,0.21442 0.041,0.62034 0.1209,0.76995 0.1528,0.28224 0.841,0.94949 1.2005,1.05819 0.2825,0.0529 0.476,-0.0239 0.7365,0 0,0 0.5849,0.19748 0.5849,0.19748 0,0 1.2048,0.23838 1.2048,0.23838 0,0 1.3005,0.0549 1.3005,0.0549 0.3936,0.0719 0.4716,0.27032 1.0081,0.25336 0,0 2.0887,-0.30419 2.0887,-0.30419 0.7794,0.0638 2.0106,0.49466 2.7296,0.12367 0.3814,-0.19647 0.6376,-0.6822 0.9542,-0.95448 0.3715,-0.31816 0.7618,-0.29922 1.0938,-0.58743 0,0 0.7178,-0.67922 0.7178,-0.67922 0.1309,-0.18651 0.096,-0.40391 0.2529,-0.58642 0.166,-0.19452 0.4375,-0.22842 0.6969,-0.42889 0.1726,-0.13265 0.7212,-0.77095 0.8311,-0.9505 0.332,-0.54553 0.1616,-1.43718 0.808,-2.04058 0.5827,-0.54356 2.1712,-0.97142 2.8989,-1.39431 0.6728,-0.39196 0.6981,-1.0901 1.9887,-1.25268 0.2418,-0.77694 1.2444,-1.00732 1.4577,-1.2397 0.2176,-0.23638 0.178,-0.5675 0.2099,-0.85475 0.073,-0.66124 0.3122,-1.48905 0.2012,-2.09445 0,0 0.9894,-0.15958 0.9894,-0.15958 0,0 1.1092,-0.38695 1.1092,-0.38695 0,0 1.1993,-0.26032 1.1993,-0.26032 0.7981,-0.25731 1.4489,-0.65527 2.3086,-0.82185 0,0 0.9894,-0.0937 0.9894,-0.0937 0.4452,-0.0768 1.7479,-0.53656 1.9941,-0.88065 0.2331,-0.32615 0.095,-1.61873 0.095,-2.08448 0,0 2.1986,-0.23838 2.1986,-0.23838 0,0 2.6383,-0.37303 2.6383,-0.37303 0,0 1.2093,-0.39692 1.2093,-0.39692 0,0 2.7483,0.45379 2.7483,0.45379 0,0 1.2092,-0.30322 1.2092,-0.30322 0,0 1.4248,0.0908 1.4248,0.0908 0,0 1.5434,0.86672 1.5434,0.86672 0.2616,0.7819 0.819,0.62533 1.5391,0.71907 0,0 0.7694,0.15761 0.7694,0.15761 0,0 2.0887,0.0718 2.0887,0.0718 0,0 0.7696,-0.15061 0.7696,-0.15061 0.6057,0.54556 0.7167,0.29221 1.3983,0.44183 0.6376,0.13963 1.2334,0.34808 1.8996,0.35604 1.0356,0.0122 1.3499,0.10375 2.3086,0.51564 0,0 0.9893,0.50466 0.9893,0.50466 0.4178,0.11571 0.8971,-0.0987 1.539,0 0,0 0.9895,0.32115 0.9895,0.32115 0,0 3.0781,0.44082 3.0781,0.44082 0,0 0.9893,-0.0868 0.9893,-0.0868 0,0 0,0.29922 0,0.29922 0,0 0.7882,-0.14661 0.7882,-0.14661 0.3013,0.0189 0.5168,0.23738 0.8609,0.28725 0,0 3.7376,-0.14064 3.7376,-0.14064 0.7376,-0.008 1.8864,-0.0808 2.3085,-0.69815 0,0 1.4248,0.27525 1.4248,0.27525 0.4727,0.15561 0.51,0.40496 0.8948,0.5725 0.3518,0.15161 0.9278,0.21145 1.3082,0.28525 1.3488,0.26032 0.7848,0.42089 2.1986,0.16358 0.3892,0.26428 1.506,0.37298 1.9689,0.24235 0.1869,-0.0529 0.4826,-0.24435 0.6694,-0.34209 0.4474,0.53356 0.9663,0.62434 1.649,0.83077 1.3653,0.41093 2.4944,0.68622 3.9575,0.66524 0,0 1.1829,-0.1137 1.1829,-0.1137 0.1671,0.0449 0.2726,0.17654 0.4068,0.26632 0,0 0.5298,0.29521 0.5298,0.29521 0.4409,0.33809 0.9322,1.13797 1.0685,1.64663 0.9279,0.10971 0.9916,0.59344 1.6688,0.98939 0,0 1.4182,0.90959 1.4182,0.90959 0.4342,0.23738 0.9608,0.34809 1.3609,0.6423 0.376,0.27525 0.9993,1.26264 1.3225,1.64563 0,0 0.7167,0.65927 0.7167,0.65927 0.2385,0.33609 0.016,1.7304 0.4859,2.19716 0.5013,0.49769 1.0718,0.47176 1.7116,0.58347 0,0 1.2093,0.29021 1.2093,0.29021 0,0 0.9893,0.0918 0.9893,0.0918 0.6575,0.12367 0.7498,0.46975 1.5392,0.0698 0.6353,0.51662 0.7353,0.96846 1.6489,0.99735 0.1967,0.55057 1.2466,1.0642 1.8842,1.0971 0,0 0,0.38998 0,0.38998 0.1363,0.4827 0.5167,0.49467 0.974,0.50764 0,0 0.2738,0.52663 0.2738,0.52663 0,0 0.1198,0.55354 0.1198,0.55354 0.2089,0.48769 0.6881,0.87168 1.2554,0.91455 0,0 0,0.29921 0,0.29921 0,0 1.4291,0.39896 1.4291,0.39896 0,0 0.2198,1.19684 0.2198,1.19684 0,0 0.4398,0 0.4398,0 0,0 0,0.29918 0,0.29918 0,0 1.1036,-0.18948 1.1036,-0.18948 0.4431,0.007 0.6202,0.20545 0.9851,0.23138 0.3308,0.0228 0.741,-0.15161 1.0685,-0.0858 0,0 1.6523,0.77394 1.6523,0.77394 0.2561,0.11171 0.4122,0.19649 0.6881,0.27429 0.7124,0.19944 0.8487,0.13363 0.8784,0.89061 0,0 0.9157,0.5396 0.9157,0.5396 0,0 0.6232,0.35802 0.6232,0.35802 -0.3572,0.46179 0.1518,0.88765 0.5322,1.22077 0.8036,0.70214 1.3005,0.58547 1.7358,0.80087 0,0 0.4112,0.27529 0.4112,0.27529 0,0 0.4683,0.15061 0.4683,0.15061 0.4463,0.18451 0.1968,0.29122 0.9201,0.34509 0,0 0,0.39892 0,0.39892 0,0 0.4397,0 0.4397,0 0,0 0,0.29922 0,0.29922 1.14,0.16754 0.5134,0.78195 1.9789,0.79788 0.085,0.46576 0.1571,0.55953 0.6594,0.69817 0.3562,0.53956 0.6982,0.3451 1.1731,0.68017 0.3022,0.21145 0.388,0.48874 0.7167,0.77895 0.3528,0.31018 1.2708,0.73308 1.7379,0.93452 0,0 -0.3297,0.79788 -0.3297,0.79788 0,0 0.8795,0.0997 0.8795,0.0997 0,0 0,0.39895 0,0.39895 0,0 1.7401,-0.16557 1.7401,-0.16557 0.3156,-0.0868 0.5002,-0.38795 1.0081,-0.39592 0.7981,-0.0122 0.7828,0.50366 2.1986,0.45976 0,0 1.0851,-0.14162 1.0851,-0.14162 0.344,0.0568 0.3089,0.31216 0.6892,0.48871 0,0 0.5344,0.20743 0.5344,0.20743 0,0 3.3078,1.92992 3.3078,1.92992 0.62,0.25131 1.2444,0.0189 1.8589,0 0,0 0.8794,0.1107 0.8794,0.1107 0,0 0.2199,0.89762 0.2199,0.89762 0.9003,0.14061 0.4969,0.69815 1.649,0.99736 0.1737,0.58744 1.1268,1.56683 1.6589,1.94585 0,0 0.6211,0.36602 0.6211,0.36602 0.5375,0.35605 0.3155,0.52063 1.1279,0.58046 0,0 0.4485,0.70215 0.4485,0.70215 0,0 0.2122,0.56249 0.2122,0.56249 0,0 0.4562,0.54857 0.4562,0.54857 0,0 0,0.77991 0,0.77991 0,0 0.8618,-0.0997 0.8618,-0.0997 0.3177,0.95248 0.343,0.0469 0.3297,1.49606 0,0 0.7697,0.0997 0.7697,0.0997 0,0 0.366,0.7111 0.366,0.7111 0,0 -0.1462,0.78491 -0.1462,0.78491 0,0 1.0993,0.19947 1.0993,0.19947 0,0 -0.1099,1.89498 -0.1099,1.89498 0,0 0.3298,0 0.3298,0 -0.043,0.87073 -0.07,0.4219 0.1144,1.21381 0.1099,0.47173 -0.1034,0.43583 0.4353,0.88065 0,0 -1.0994,0.19948 -1.0994,0.19948 0,0 0.11,-0.89761 0.11,-0.89761 0,0 -0.8795,0 -0.8795,0 0,0 0.11,0.68916 0.11,0.68916 -0.01,0.51663 -0.4606,0.50166 0.2198,1.10607 -0.1594,0.12267 -0.422,0.29321 -0.4496,0.49369 -0.062,0.44783 0.8926,0.47376 1.1719,0.30219 0.2297,-0.14061 0.3011,-0.46776 0.3771,-0.69614 0,0 0.2198,0 0.2198,0 0,0 0.7695,0.59839 0.7695,0.59839 0,0 -0.2199,0.4987 -0.2199,0.4987 0,0 1.4478,0.65227 1.4478,0.65227 0,0 2.0701,0.40393 2.0701,0.40393 0,0 1.3378,0.6064 1.3378,0.6064 0,0 1.0356,0.35205 1.0356,0.35205 0,0 1.8358,1.76934 1.8358,1.76934 0,0 0.5178,0 0.5178,0 0.3913,0.65227 1.4884,0.66123 2.1987,0.50466 0,0 1.3092,0.73504 1.3092,0.73504 0,0 2.3184,1.35941 2.3184,1.35941 0.1518,0.43383 0.2045,0.37299 0.6134,0.57946 1.0785,0.54354 0.8224,0.16455 1.8051,0.4179 -0.1571,0.98239 0.2968,0.53357 0.9564,1.22674 0.2705,0.28424 0.3331,0.52363 0.7036,0.754 0.3111,0.19248 0.5926,0.18948 0.7586,0.37103 0.2022,0.22241 0.6364,1.31851 0.6595,1.63766 0,0 1.0994,0.29918 1.0994,0.29918 0,0 0.2198,0.89765 0.2198,0.89765 0,0 -0.3298,0.49867 -0.3298,0.49867 1.3555,-0.0389 0.7706,-0.61538 1.8689,-0.69814 0,0 0,-0.39896 0,-0.39896 0,0 0.9893,0.0997 0.9893,0.0997 0,0 0,0.39896 0,0.39896 1.6435,0.0728 1.0169,0.7101 2.4185,0.79788 0.4287,0.6413 1.0036,0.48869 1.3367,0.78291 0.2463,0.21744 0.2695,0.69418 0.3738,0.89465 0.2496,0.47773 0.8421,0.6014 1.3675,0.61637 0.1319,-0.33212 0.1771,-0.32115 0.5498,-0.39896 0,0 -0.2199,-0.89762 -0.2199,-0.89762 0.6562,-0.22141 0.5177,-0.44682 0.4398,-0.99735 0.5924,-0.27029 0.5276,-0.29222 1.2091,-0.29922 0.07,-0.38199 0.1946,-0.58543 0.6596,-0.49866 -0.5684,0.35705 -0.093,0.92455 0.4387,0.81084 0.6354,-0.13664 1.019,-0.86871 1.4785,-1.2048 0,0 2.0403,-0.98243 2.0403,-0.98243 0,0 1.228,-0.88761 1.228,-0.88761 0,0 0.7508,-0.26931 0.7508,-0.26931 0.5408,-0.21742 1.6621,-0.76795 2.2624,-0.67722 0,0 1.3972,0.44087 1.3972,0.44087 0,0 1.0674,0.0768 1.0674,0.0768 0,0 0.8795,1.69553 0.8795,1.69553 0,0 1.3192,0.29918 1.3192,0.29918 0,0 0.3947,1.142 0.3947,1.142 0,0 0.5947,0.4538 0.5947,0.4538 0,0 -0.9894,0.0997 -0.9894,0.0997 0,0 0,0.49865 0,0.49865 0,0 0.8794,0.0997 0.8794,0.0997 0,0 0,0.4987 0,0.4987 0,0 -0.9893,0 -0.9893,0 0,0 -0.2199,1.0971 -0.2199,1.0971 -0.9499,0.27224 -0.5266,0.94748 -0.9443,1.48304 -0.2056,0.26232 -0.5497,0.384 -0.8003,0.60141 0,0 -0.5376,0.64431 -0.5376,0.64431 -0.4023,0.34808 -0.4386,0.23037 -1.0806,0.83777 -0.4705,0.44483 -0.6531,0.33612 -0.8146,1.0213 -0.2759,0.0848 -0.6024,0.17554 -0.8157,0.36602 -0.3782,0.33911 -0.4551,1.00136 -1.273,1.13003 0,0 0,0.5984 0,0.5984 0.4364,0.0608 0.4761,0.10474 0.7695,0.39896 -0.5596,0.33508 -0.3485,0.70214 -0.288,1.1968 0.1034,0.83682 -0.2551,1.23573 0.9476,1.49606 0,0 0,0.69813 0,0.69813 0,0 1.0806,-0.0588 1.0806,-0.0588 0,0 1.228,0.25832 1.228,0.25832 0,0 0,0.39896 0,0.39896 1.3246,0.15357 1.0355,0.64327 1.9787,0.99736 0.1078,0.97041 -0.2627,0.99434 -1.2092,0.99736 -0.016,-0.44383 -0.2738,-1.15994 -0.7927,-1.34146 -0.1759,-0.0439 -0.3979,0.0122 -0.6057,0 0,0 -0.5803,-0.1546 -0.5803,-0.1546 0,0 0,-0.29919 0,-0.29919 0,0 -1.3192,0.19945 -1.3192,0.19945 0,0 0,0.4987 0,0.4987 -0.6399,0.1486 -0.8256,0.31715 -0.9895,0.89761 -0.5485,0.11271 -0.8123,0.18951 -0.9893,0.69814 0,0 -0.9894,-0.0997 -0.9894,-0.0997 0,0 0,0.79792 0,0.79792 -0.7267,0.0518 -0.5035,0.16154 -0.9993,0.32711 -0.6639,0.22242 -1.229,-0.0659 -0.8695,0.86969 -0.4936,0.14264 -0.509,0.24538 -0.5497,0.69817 0,0 -0.3297,0 -0.3297,0 0,0 0,0.39893 0,0.39893 -0.4464,0.24037 -0.4728,0.45383 -0.5497,0.89761 -1.0356,0.28129 -0.6046,0.58847 -0.4398,1.29658 0,0 -0.8794,0 -0.8794,0 0,0 -0.2199,1.29657 -0.2199,1.29657 0,0 -0.5496,0 -0.5496,0 0,0 -0.2199,1.0971 -0.2199,1.0971 0,0 -0.4397,0 -0.4397,0 -0.09,0.56949 -0.2913,0.58246 -0.9059,0.59839 0,0 0,0.66625 0,0.66625 0,0 -0.3287,0.53956 -0.3287,0.53956 0,0 0.1814,0.68421 0.1814,0.68421 0,0 -0.1561,0.6034 -0.1561,0.6034 0,0 -0.8794,0 -0.8794,0 0,0 0.3298,0.79789 0.3298,0.79789 0,0 -0.8795,-0.19949 -0.8795,-0.19949 0,0 0,0.89762 0,0.89762 -0.2781,-0.4159 -0.3396,-0.51763 -0.8794,-0.59839 0,0 0.3297,1.19684 0.3297,1.19684 0,0 -0.4397,0 -0.4397,0 0,0 -0.1098,0.99736 -0.1098,0.99736 0,0 -0.3298,0.39892 -0.3298,0.39892 -1.0071,0.27828 -0.5454,1.35441 -1.8689,1.49606 0,0 0,0.59839 0,0.59839 0,0 -0.3298,0 -0.3298,0 0,0 0,0.39896 0,0.39896 -0.5507,0.12964 -1.0675,0.31218 -1.3191,0.79787 -0.6267,0.18152 -0.5498,0.40993 -0.3299,0.89762 0,0 -0.5497,0 -0.5497,0 -0.014,1.23374 -0.4781,0.75502 -0.9893,1.59579 0,0 -0.5497,0 -0.5497,0 0,0 0,0.39893 0,0.39893 0,0 -0.3298,0 -0.3298,0 0,0 0,0.39896 0,0.39896 0,0 -0.4397,0.19947 -0.4397,0.19947 0,0 -0.5496,-0.29922 -0.5496,-0.29922 -0.01,0.57448 0.029,0.74602 -0.6596,0.79789 0,0 0,0.59843 0,0.59843 0,0 0.3297,0.0997 0.3297,0.0997 -0.5979,0.28025 -0.5243,0.48969 -0.8442,0.70411 0,0 -0.642,0.26931 -0.642,0.26931 -0.3111,0.20544 -0.5156,0.78988 -0.6025,1.12103 -0.8519,0.0907 -0.897,0.61338 -1.0992,1.29654 0,0 -0.5497,0 -0.5497,0 -0.1154,0.77495 -0.07,1.11707 -0.9893,1.19684 0,0 0.1099,0.69814 0.1099,0.69814 0,0 -0.2199,0.29922 -0.2199,0.29922 0,0 -1.5391,0.19948 -1.5391,0.19948 0,0 -0.1099,0.5984 -0.1099,0.5984 -0.5331,0.015 -1.1751,0.12267 -1.5093,0.54656 0,0 -0.3111,0.62333 -0.3111,0.62333 0,0 -0.4881,0.52564 -0.4881,0.52564 -0.5453,-0.0868 -0.7949,-0.19052 -1.0994,0.29918 0,0 -0.5496,0 -0.5496,0 -0.033,0.86075 -0.2792,0.58146 -0.7102,0.95249 0,0 -0.3374,0.38995 -0.3374,0.38995 -0.5156,0.4618 -1.1258,0.55257 -1.8106,0.55257 0,0 0.2199,0.5984 0.2199,0.5984 0,0 -0.9895,0 -0.9895,0 -0.178,0.47973 -0.4639,0.5655 -0.9893,0.5984 0,0 0,0.39896 0,0.39896 0,0 -0.3298,0 -0.3298,0 0,0 -0.1099,0.79788 -0.1099,0.79788 -0.4893,0.0161 -0.6277,-0.007 -0.8795,0.39895 -0.6464,-0.38999 -0.4299,-1.3524 -1.0586,-1.79127 -0.3639,-0.25331 -0.7795,-0.1067 -0.8531,0.29923 -0.058,0.31714 0.1978,0.91458 0.3726,1.19283 -0.4782,0.45479 -0.1296,0.53559 0.1099,0.99735 0,0 -0.4397,0.69815 -0.4397,0.69815 0,0 0,-0.39893 0,-0.39893 -0.5562,0.0818 -0.742,0.24335 -0.9893,0.69815 0,0 -0.3298,0 -0.3298,0 0,0 -0.3298,-0.59841 -0.3298,-0.59841 0,0 -0.8794,0 -0.8794,0 0,0 -0.5981,0.72808 -0.5981,0.72808 0,0 -0.6112,1.06716 -0.6112,1.06716 0,0 -0.5497,0 -0.5497,0 0,0 0,0.29921 0,0.29921 0,0 -1.0993,0.19945 -1.0993,0.19945 0,0 0,0.39896 0,0.39896 -0.8486,0.27228 -0.5881,0.56249 -0.4396,1.19683 -0.4728,0.0251 -0.6245,0.014 -0.8796,0.39896 -0.5013,0.0359 -1.3247,0.39096 -1.7237,0.6712 0,0 -0.4211,0.33812 -0.4211,0.33812 0,0 -1.373,0.58644 -1.373,0.58644 0,0 0,0.49866 0,0.49866 -0.4254,0.1167 -0.4562,0.13964 -0.6596,0.4987 0,0 -0.4396,0 -0.4396,0 -0.033,0.88465 -0.3409,0.76597 -0.9455,1.25166 0,0 -0.5771,0.59144 -0.5771,0.59144 0,0 -0.7355,0.50766 -0.7355,0.50766 -1.0608,1.02329 -0.6771,1.39532 -1.1037,2.53628 -0.2243,0.59944 -0.2825,1.04323 -1.0355,1.19684 0,0 -0.11,0.89762 -0.11,0.89762 0,0 -0.6903,0.1476 -0.6903,0.1476 0,0 -0.6101,0 -0.6101,0 0,0 -1.1181,0.15161 -1.1181,0.15161 0,0 0,0.49867 0,0.49867 0,0 0.4397,0.0997 0.4397,0.0997 0,0 -0.5496,0.29922 -0.5496,0.29922 0,0 0,0.39895 0,0.39895 -0.454,0.0708 -0.4991,0.10671 -0.6596,0.49867 0,0 -0.8794,0 -0.8794,0 -0.079,0.42984 -0.1858,0.52662 -0.6596,0.59845 0,0 0,0.49867 0,0.49867 0,0 -0.9894,0.0997 -0.9894,0.0997 0,0 0.2199,0.69813 0.2199,0.69813 0,0 -0.4705,0.94849 -0.4705,0.94849 0,0 -0.7388,0.74707 -0.7388,0.74707 -1.0916,0.4019 -1.938,1.43215 -3.078,1.59574 -0.086,0.33814 -0.074,0.37897 -0.4398,0.49871 -0.093,0.73503 -0.3287,0.6692 -0.8113,1.14096 -0.443,0.43186 -0.3374,0.57444 -1.0575,0.75401 -0.034,0.28619 -0.058,0.59141 -0.3727,0.74501 0,0 -1.506,0.43486 -1.506,0.43486 -0.3122,0.0216 -0.4958,-0.0708 -0.8388,0 -1.0268,0.20943 -1.704,0.87267 -3.2188,1.01432 -0.1649,0.38295 -0.3474,0.36199 -0.7695,0.39889 0,0 -1.4291,1.89501 -1.4291,1.89501 0,0 -0.4398,0 -0.4398,0 -0.1066,0.39295 -0.3342,0.77793 -0.7716,0.93949 -0.6344,0.23339 -1.2588,-0.0688 -1.6469,0.55653 -1.251,0.0359 -1.4038,0.82982 -2.6383,0.99739 0,0 0.2199,0.59839 0.2199,0.59839 -1.7392,0.37101 -0.6487,0.81886 -2.1987,1.22578 -0.6266,0.16451 -0.5869,0.14061 -1.2092,0.1007 -0.3551,-0.0226 -1.6237,0.27827 -1.9743,0.40697 0,0 -0.5849,0.2852 -0.5849,0.2852 -0.3177,0.0768 -0.5398,-0.0409 -0.8487,0 -0.4068,0.10676 -0.6574,0.40992 -1.0993,0.57449 -0.4134,0.15458 -0.9102,0.1227 -1.5335,0.45582 -0.4496,0.23935 -0.4694,0.45976 -0.8168,0.77192 0,0 -1.0037,0.84473 -1.0037,0.84473 0,0 -0.5497,0.383 -0.5497,0.383 -0.5287,0.46079 -0.8343,1.01835 -1.5709,1.4821 -0.5882,0.37001 -0.8861,0.1775 -1.561,0.36401 -0.9047,0.24939 -1.6468,0.76105 -1.7853,0.81285 -0.2616,0.0988 -0.4243,0.0226 -1.0729,0.27133 -0.7673,-0.45981 -0.9191,-0.25239 -1.6446,-0.42886 -0.3309,-0.0798 -0.4089,-0.21347 -0.6827,-0.31521 0,0 -0.7409,-0.17751 -0.7409,-0.17751 0,0 -1.2191,-0.46974 -1.2191,-0.46974 -0.3255,-0.15759 -0.509,-0.30218 -0.8795,-0.43191 -1.4687,-0.51461 -1.5006,-0.30912 -2.8582,-0.18848 -0.5738,0.0519 -0.9553,0.0128 -1.5379,0.21746 -0.8531,0.30015 -1.1312,0.81383 -1.6171,1.19285 0,0 -0.719,0.38192 -0.719,0.38192 -0.5618,0.38705 -0.4243,0.6264 -1.2928,0.71815 -0.1957,0.50763 -0.5035,0.46773 -0.9806,0.67721 -0.6276,0.27625 -0.3869,0.39398 -1.2181,0.41986 0,0 0,-0.29922 0,-0.29922 -1.8633,-0.13663 -2.5262,-0.72306 -3.078,-0.85571 0,0 -0.9894,0 -0.9894,0 0,0 -1.0993,-0.13165 -1.0993,-0.13165 -0.3606,-0.0138 -1.7732,0.11365 -2.0843,0.23335 -0.93,0.35708 -1.3741,1.84118 -1.6006,2.04659 -0.3617,0.32716 -1.0718,0.30724 -1.6973,0.54359 0,0 -0.6827,0.29922 -0.6827,0.29922 -0.5221,0.19448 -0.9553,0.17648 -1.6116,0.56351 0,0 -0.5782,0.41091 -0.5782,0.41091 0,0 -0.7454,0.32116 -0.7454,0.32116 -0.5507,0.28722 -0.3078,0.38896 -1.1136,0.45873 -0.221,-0.54158 -0.7432,-0.61134 -1.3192,-0.79785 0,0 0,-0.3989 0,-0.3989 -0.786,-0.10878 -0.9388,-0.71913 -1.6533,-0.85275 -0.6497,-0.12073 -1.3291,0.21643 -1.8952,0.43983 -1.0004,0.3929 -3.087,0.48962 -3.597,1.41027 -0.4364,0.009 -1.0136,0.0628 -1.4291,0.18252 -0.5387,0.15655 -1.0224,0.43083 -1.6259,0.28717 -0.3012,-0.0718 -0.3474,-0.24432 -0.6937,-0.36702 0,0 -1.7479,-0.42482 -1.7479,-0.42482 -0.565,-0.18061 -1.2796,-0.56056 -1.8688,-0.56755 -1.4698,-0.0182 -3.0275,0.84576 -3.9388,0.66324 -0.5849,-0.11769 -1.0818,-0.66822 -1.5908,-0.90259 0,0 -2.3855,-0.58944 -2.3855,-0.58944 -1.1125,-0.18853 -2.2909,0.13564 -3.4079,0.18852 -0.5386,0.0261 -0.6013,-0.17853 -1.2092,-0.13563 -1.2356,0.0867 -1.1751,-0.33514 -2.1986,-0.82786 0.1275,-0.64425 0.266,-1.52096 -0.5497,-1.79524 -0.032,-0.26828 -0.051,-0.44883 -0.2187,-0.68518 -0.1737,-0.2424 -0.4376,-0.37499 -0.6695,-0.56352 -0.5211,-0.42585 -0.808,-0.85378 -1.5303,-1.04521 -0.6892,-1.11305 -2.9626,-0.35009 -3.9267,0.0639 -0.3221,0.13864 -0.6321,0.23035 -0.9102,0.43482 -0.7355,-0.13166 -1.0411,0.10469 -1.8689,-0.13963 0,0 -1.6391,-0.52263 -1.6391,-0.52263 -0.2748,-0.10272 -0.6123,-0.29721 -0.8904,-0.31113 0,0 -0.6585,0.0897 -0.6585,0.0897 0,0 -0.6596,0 -0.6596,0 0,0 -2.0887,0.44682 -2.0887,0.44682 0,0 -1.2092,-0.11862 -1.2092,-0.11862 -0.4233,0 -1.8337,-0.13465 -2.1052,-0.40096 -0.1924,-0.18952 -0.1814,-0.50168 -0.2243,-0.73906 0,0 -0.3309,-1.09711 -0.3309,-1.09711 -0.068,-0.3072 0.01,-0.46074 -0.098,-0.68115 0,0 -0.8146,-0.95651 -0.8146,-0.95651 0,0 -0.3518,-0.51963 -0.3518,-0.51963 -0.155,-0.17952 -0.8574,-0.79288 -1.0696,-0.92551 -0.3276,-0.2055 -0.4562,-0.21043 -0.8135,-0.3132 -1.2521,-0.36003 -1.2433,-0.30119 -2.5471,-0.2942 -0.4727,0.005 -0.5716,-0.0123 -0.9894,0.19949 0,0 -0.1099,-0.59844 -0.1099,-0.59844 -0.7421,0.10474 -0.7311,0.39093 -1.2016,0.46974 -0.3638,0.0226 -0.676,-0.28225 -1.2026,0 -0.3859,0.24535 -0.2847,0.53661 -1.3335,1.14002 -0.5936,0.34207 -1.0718,0.31615 -1.539,0.78392 -0.8784,-0.14267 -1.5995,-0.6134 -2.4185,-0.90662 0,0 -0.8795,-0.16059 -0.8795,-0.16059 0,0 -0.7695,-0.24633 -0.7695,-0.24633 0,0 -0.7233,-0.13662 -0.7233,-0.13662 -0.4211,-0.1287 -1.3863,-0.29824 -1.7402,0 -0.1265,0.12565 -0.1265,0.21741 -0.1748,0.35305 0,0 -0.8795,0.19949 -0.8795,0.19949 -0.2484,0.81979 -1.2147,1.07911 -1.9689,1.43816 0,0 -0.5782,0.3102 -0.5782,0.3102 -0.58485,0.2234 -2.36353,0.2972 -3.0594,0.37498 0,0 -3.84759,0.46975 -3.84759,0.46975 -0.87945,-1.77232 -2.37452,-2.14032 -4.1675,-2.84646 -0.20777,-0.0818 -1.45,-0.94849 -2.09859,-1.1559 -0.44632,-0.14263 -1.66106,-0.0788 -2.19863,-0.0868 -0.6365,-0.01 -0.58044,-0.0938 -0.98938,-0.11867 0,0 -0.98939,0 -0.98939,0 -0.18688,-0.51963 -0.64859,-0.65827 -1.20924,-0.82682 -0.73544,-0.22144 -1.06194,-0.11173 -1.41042,-0.17657 -0.3089,-0.0578 -0.61672,-0.28225 -0.92782,-0.39791 -0.28363,-0.10573 -0.487,-0.10071 -0.71126,-0.33111 -0.3023,-0.31117 -0.29351,-1.01535 -1.08722,-1.47811 -0.68487,-0.39894 -1.30708,-0.16255 -2.01944,-0.33208 -1.32797,-0.3162 -1.28179,-0.60347 -1.88751,-0.77896 -0.95531,-0.27629 -2.4251,-0.16358 -3.83111,-1.02828 -0.45842,-0.28225 -0.20668,-0.49868 -0.27703,-0.9146 -0.0748,-0.43983 -0.52217,-1.44312 -0.86956,-1.75233 0,0 -1.03555,-0.54157 -1.03555,-0.54157 -0.72555,-0.42985 -1.64238,-0.95548 -2.46356,-1.21977 0,0 -0.59804,-0.12669 -0.59804,-0.12669 0,0 -0.48039,-0.17849 -0.48039,-0.17849 0,0 -1.83036,-0.13067 -1.83036,-0.13067 -0.56944,-0.23236 -0.23085,-0.87567 -1.23782,-1.13702 -0.41665,-0.92354 -0.91793,-0.99635 -1.83806,-1.32244 -0.26714,-0.0948 -0.38586,-0.18552 -0.69147,-0.2394 -0.52327,-0.0918 -1.03335,0.0628 -2.4075,-0.31315 0,0 -0.67937,-0.25931 -0.67937,-0.25931 0,0 -0.86956,-0.20551 -0.86956,-0.20551 -0.57274,-0.16249 -0.48369,-0.28323 -1.22573,-0.35304 0,0 0,-1.19685 0,-1.19685 0,0 -0.42323,-1.29652 -0.42323,-1.29652 0,0 -0.43973,0 -0.43973,0 -0.17369,-0.73207 -0.40126,-0.57549 -0.93882,-0.97045 0,0 -0.71455,-0.65724 -0.71455,-0.65724 0,0 -0.49029,-0.37002 -0.49029,-0.37002 0,0 -0.39906,-0.4638 -0.39906,-0.4638 0,0 -1.10811,-0.88664 -1.10811,-0.88664 -0.56065,-0.27725 -1.79517,-0.31016 -2.17554,-0.44083 0,0 -1.72811,-0.80088 -1.72811,-0.80088 -0.32101,-0.17354 -0.40345,-0.28225 -0.80031,-0.42886 0,0 -1.31477,-0.32015 -1.31477,-0.32015 0,0 -0.99379,-0.50367 -0.99379,-0.50367 0,0 -1.74131,-0.65126 -1.74131,-0.65126 -1.15647,-0.65928 -0.72225,-1.60876 -1.6094,-2.47244 -0.73543,-0.71611 -1.72371,-0.54657 -2.12716,-0.66228 0,0 -0.57824,-0.24535 -0.57824,-0.24535 0,0 -1.52915,-0.39891 -1.52915,-0.39891 0,0 0,-0.39896 0,-0.39896 0,0 -1.97876,-0.39896 -1.97876,-0.39896 -0.0121,-1.17586 -0.21987,-1.15493 -0.70137,-2.13632 -0.17588,-0.35906 -0.17369,-0.57747 -0.43973,-0.92656 0,0 -0.83438,-0.83778 -0.83438,-0.83778 -0.45731,-0.49269 -0.74423,-0.88265 -1.36864,-1.25968 -0.33198,-0.19943 -1.2873,-0.46074 -2.01504,-0.92454 -0.97729,-0.62133 -0.52217,-1.23074 -1.45659,-1.49502 -0.12752,-1.08314 -1.18506,-1.58283 -2.19863,-1.95981 0,0 -0.6365,-0.18952 -0.6365,-0.18952 -0.55296,-0.23734 -0.18468,-0.43185 -1.23234,-0.44382 -0.0989,-0.55353 -0.23414,-0.46576 -0.42872,-0.90659 0,0 -0.43753,-1.15993 -0.43753,-1.15993 -0.37377,-0.6054 -0.82998,-0.98839 -0.89264,-1.72343 -0.6497,-0.17851 -0.63101,-0.42189 -0.99378,-0.89363 -0.45512,-0.59243 -0.9575,-1.20383 -1.75451,-1.4003 -0.1616,-0.87665 -0.71345,-0.40693 -1.38734,-0.87766 -0.42212,-0.29521 -0.79919,-1.05122 -0.92122,-1.51598 -0.92782,-0.0111 -1.39833,-0.4608 -1.53904,-1.29658 0,0 -0.32979,0 -0.32979,0 0,0 -1.09932,-2.19419 -1.09932,-2.19419 0,0 -1.4291,-0.29922 -1.4291,-0.29922 -0.24735,-1.05219 -1.34556,-1.29953 -1.87323,-2.20316 -0.25504,-0.43582 -0.155,-0.50862 -0.26714,-0.88865 0,0 -0.34078,-0.72607 -0.34078,-0.72607 -0.25504,-0.79789 0.0813,-0.58744 -0.50788,-1.66758 0,0 -0.3243,-0.58944 -0.3243,-0.58944 -0.26164,-0.35905 -1.23563,-1.19383 -1.63469,-1.44318 -0.27812,-0.17354 -0.7915,-0.37002 -0.97069,-0.54356 -0.24294,-0.23639 -0.43862,-0.89066 -0.68048,-1.27164 -0.73983,-1.17091 -0.84646,-0.88765 -1.09601,-1.25967 0,0 -0.65959,-1.7743 -0.65959,-1.7743 0.70356,-0.67522 0.39356,-1.41225 0.24845,-2.19416 -0.0912,-0.48873 0.0407,-0.66228 -0.32979,-1.12203 -0.39246,-0.48774 -1.27191,-1.0203 -1.4577,-1.47113 0,0 -0.76951,0.0997 -0.76951,0.0997 -0.76622,-0.73704 -0.88605,-0.47972 -1.39613,-0.68717 -0.642,-0.26232 -0.28252,-0.40593 -1.46209,-0.40992 -0.008,-0.81882 -0.10884,-1.01729 -0.62771,-1.68253 -0.37816,-0.48473 -0.68706,-0.4947 -0.8014,-1.11007 0,0 -0.32979,0 -0.32979,0 -0.0308,-0.91458 -0.30891,-0.81985 0.13301,-1.79424 z m 159.37745,100.034 c 0.076,0.31217 0.122,0.36801 -0.2199,0.49862 0,0 0.2199,-0.49862 0.2199,-0.49862 z m 76.6222,40.09375 c 0,0 0.3297,0 0.3297,0 0,0 -0.2198,0.399 -0.2198,0.399 0,0 -0.1099,-0.399 -0.1099,-0.399 z m 54.8557,-152.09707 c 0,0 0.11,0.0997 0.11,0.0997 0,0 -0.11,0 -0.11,0 0,0 0,-0.0997 0,-0.0997 z"
       id="Selection #1"
       inkscape:connector-curvature="0"
       style="fill:#08082d;fill-opacity:1;stroke:none" />
    <path
       style="fill:#08082d;fill-opacity:1;stroke:none"
       inkscape:connector-curvature="0"
       id="path6278"
       d="m 1582.0769,820.58438 c 0,0 0.5926,0.1869 0.5926,0.1869 0,0 -0.5926,-0.1869 -0.5926,-0.1869 z m -94.1046,106.3112 c -0.6684,0.6354 -1.4302,0.7316 -1.5259,1.5533 -0.088,0.7593 0.774,0.6659 1.1977,1.0739 0.3598,0.3471 0.5659,0.7988 0.8146,1.2029 0.1309,0.2129 0.3486,0.4134 0.2703,0.6747 -0.043,0.1379 -0.8043,0.8203 -0.9605,0.9155 0,0 -0.7262,0.339 -0.7262,0.339 -0.7223,0.3643 -0.5542,0.5472 -1.4671,0.2709 -0.4921,0.5514 -0.8084,0.069 -1.6144,0.7548 -0.3932,0.3345 -0.8278,0.9699 -1.0633,1.4054 -0.1377,0.3279 -0.1147,0.7045 -0.3839,0.9142 0,0 -2.0758,0.5617 -2.0758,0.5617 -0.7385,0.2246 -1.8596,0.8383 -2.6331,0.9065 -0.4454,0.038 -0.9316,-0.1708 -1.314,-0.147 0,0 -1.7029,0.2519 -1.7029,0.2519 0,0 -1.7777,-0.5608 -1.7777,-0.5608 -0.4699,-0.05 -1.8987,0.1242 -2.656,-0.067 0,0 -0.1079,0.2568 -0.1079,0.2568 -0.8375,-0.2427 -0.7384,-0.1166 -1.3545,0.2638 0,0 -0.5713,0.319 -0.5713,0.319 0,0 -1.3088,1.6838 -1.3088,1.6838 -0.2695,0.2077 -1.497,0.9653 -1.8208,1.0813 0,0 -1.7744,0.4832 -1.7744,0.4832 -0.3539,0.153 -0.4839,0.3427 -0.7548,0.5296 -0.4316,0.2982 -0.5622,0.1164 -0.6869,0.6878 -0.398,0.085 -0.4013,0.1913 -0.5479,0.5057 0.6869,0.3349 0.6322,0.7742 0.7765,1.3655 0,0 0.2744,0.734 0.2744,0.734 0,0 -0.1324,0.8879 -0.1324,0.8879 -0.045,0.6256 -0.01,1.2742 -0.2322,1.8819 -0.095,0.2608 -0.197,0.3304 -0.143,0.6334 0.071,0.3927 0.3709,0.6801 0.3825,0.9214 0.015,0.2846 -0.2654,0.4823 -0.3627,1.0235 0,0 -0.8462,0.3505 -0.8462,0.3505 0,0 -1.5167,0.4822 -1.5167,0.4822 0,0 -0.3551,0.3184 -0.3551,0.3184 0,0 -0.6587,0.4978 -0.6587,0.4978 -0.2058,-0.029 -0.3324,-0.053 -0.546,-0.031 -0.2567,0.026 -1.8897,0.3665 -2.1174,0.4797 0,0 -1.3789,0.7777 -1.3789,0.7777 -0.8262,0.3132 -2.5991,0.5508 -2.9548,1.4137 -0.073,0.1738 -0.055,0.3831 -0.053,0.565 -0.5736,0.077 -1.0837,0.4607 -1.9141,0.5632 0,0 -0.5686,0.022 -0.5686,0.022 0,0 -0.7249,0.1281 -0.7249,0.1281 0,0 -0.8142,0.075 -0.8142,0.075 0,0 -1.1081,0.2418 -1.1081,0.2418 -0.4604,0.068 -0.9455,0.038 -1.39,0.1829 -0.317,0.1026 -0.5181,0.2911 -0.8206,0.4255 -0.4769,0.214 -0.7449,0.2157 -1.3706,0.5844 -0.4309,0.2538 -0.423,0.5092 -0.7637,0.5481 0,0 -3.7308,-0.5759 -3.7308,-0.5759 0,0 -2.8238,0.5081 -2.8238,0.5081 -0.885,0.019 -2.0914,-0.5434 -2.9077,-0.4879 -0.4989,0.035 -0.8806,0.1953 -1.3553,0.2976 -0.4415,0.095 -1.4387,0.278 -1.8148,0.4356 -0.4006,0.1684 -1.054,0.7522 -1.4407,0.7863 -0.3428,0.03 -0.6929,-0.2758 -1.0002,-0.4095 0,0 -2.2715,-0.7165 -2.2715,-0.7165 0,0 -1.9752,-0.6231 -1.9752,-0.6231 -0.6751,-0.2487 -0.9118,-0.5426 -1.7777,-0.5608 -0.7103,0.01 -1.6031,0.4084 -2.4607,0.5091 0,0 -0.6499,0 -0.6499,0 -0.7456,0.036 -1.4105,0.3412 -1.9114,0.7987 0,0 -1.8935,-0.8173 -1.8935,-0.8173 0,0 -0.6935,-0.4796 -0.6935,-0.4796 0,0 -1.4813,-0.4672 -1.4813,-0.4672 0,0 -1.4882,-0.7176 -1.4882,-0.7176 0,0 -1.5993,-0.1865 -1.5993,-0.1865 0,0 -1.4363,-0.042 -1.4363,-0.042 -0.2894,0.3002 -0.4315,0.2283 -0.8351,0.1242 -0.4608,0.5032 -0.9441,0.4186 -1.3528,0.6725 0,0 -0.4263,0.3706 -0.4263,0.3706 -0.1035,0.068 -0.7854,0.3309 -1.4134,0.761 -0.4843,0.3328 -0.5978,0.5607 -0.9838,0.9497 -1.7026,-0.7687 -1.9338,-0.418 -3.1335,-0.7945 -1.4252,-0.444 -2.721,-0.5967 -4.2375,-0.4508 -0.4755,0.046 -1.0103,0.1476 -1.4291,0.3537 -0.3344,0.165 -0.7153,0.5208 -1.1066,0.4885 0,0 -1.1763,-0.3711 -1.1763,-0.3711 0,0 -3.1827,-0.6773 -3.1827,-0.6773 -0.5021,-0.051 -1.3054,-0.093 -1.7883,-0.01 -0.3107,0.058 -1.0579,0.3061 -1.269,0.284 -0.2256,-0.01 -0.4555,-0.1697 -0.7625,-0.2404 0,0 -2.1945,-0.3618 -2.1945,-0.3618 -0.4815,-0.017 -0.5232,0.1141 -0.9227,0.2343 -0.3363,0.1004 -1.3195,0.335 -1.5476,0.4733 0,0 -0.6763,0.6543 -0.6763,0.6543 -0.6248,-0.3153 -1.2345,-0.6424 -1.8045,-1.0296 -0.3431,-0.2323 -0.5378,-0.5196 -0.9383,-0.6953 -0.6791,-0.2977 -1.4854,-0.1914 -1.8571,-0.3717 0,0 -1.2643,-0.9842 -1.2643,-0.9842 -0.7095,-0.3799 -2.1037,-0.3544 -2.9074,-0.2678 -0.2516,-0.4447 -0.5302,-0.551 -1.0054,-0.8017 0.1015,-1.1845 -0.9408,-1.4484 -1.2183,-1.7356 0,0 -0.2685,-0.3726 -0.2685,-0.3726 -0.1981,-0.2447 -0.6733,-0.7058 -0.9491,-0.88 0,0 -2.7415,-1.1953 -2.7415,-1.1953 -0.499,-0.2873 -0.2618,-0.45 -1.3128,-0.8688 0,0 0.054,-0.6615 0.054,-0.6615 0,0 -0.6644,-0.016 -0.6644,-0.016 0.041,-0.1952 0.1871,-0.5438 0.1689,-0.695 -0.036,-0.2855 -0.4134,-1.0531 -0.6972,-1.2483 -0.2347,-0.1256 -0.4363,-0.1144 -0.6617,-0.2087 0,0 -0.4542,-0.3353 -0.4542,-0.3353 0,0 -0.9965,-0.546 -0.9965,-0.546 0,0 -1.1486,-0.4156 -1.1486,-0.4156 -0.3277,-0.1732 -0.3262,-0.3657 -0.8143,-0.5031 0,0 -1.9861,-0.3309 -1.9861,-0.3309 -0.6772,-0.2756 -1.628,-0.9943 -2.4076,-0.8797 -0.4136,0.061 -0.8187,0.4048 -1.2013,0.5488 -0.4484,0.1677 -0.7922,0.041 -1.1944,0.1941 0,0 -0.8897,0.3795 -0.8897,0.3795 -0.1847,0.123 -0.2315,0.3195 -0.4385,0.4316 -0.2192,0.1199 -0.4754,0.072 -0.7807,0.1706 -0.2029,0.065 -0.9257,0.4572 -1.0892,0.5802 -0.4949,0.3741 -0.6631,1.1876 -1.4613,1.5222 -0.7194,0.3014 -2.3007,0.2184 -3.1068,0.3752 -0.7458,0.1456 -1.0201,0.7376 -2.2381,0.5114 -0.4974,0.5983 -1.4811,0.5119 -1.7564,0.6508 -0.2807,0.1412 -0.3645,0.4366 -0.4967,0.6741 -0.3035,0.5469 -0.8171,1.1894 -0.9356,1.7405 0,0 -0.9464,-0.1435 -0.9464,-0.1435 0,0 -1.1359,0.018 -1.1359,0.018 0,0 -1.1713,-0.1165 -1.1713,-0.1165 -0.8098,-0.01 -1.5378,0.1518 -2.3702,0.051 0,0 -0.9226,-0.2 -0.9226,-0.2 -0.4277,-0.06 -1.7636,-0.035 -2.1089,0.1907 -0.327,0.2139 -0.6683,1.3624 -0.8362,1.7621 0,0 -2.0612,-0.4185 -2.0612,-0.4185 0,0 -2.5047,-0.4275 -2.5047,-0.4275 0,0 -1.2294,0 -1.2294,0 0,0 -2.3054,-1.1683 -2.3054,-1.1683 0,0 -1.1957,-0.082 -1.1957,-0.082 0,0 -1.2473,-0.4817 -1.2473,-0.4817 0,0 -1.0742,-1.1813 -1.0742,-1.1813 0.047,-0.7451 -0.5103,-0.7687 -1.1234,-1.0532 0,0 -0.6346,-0.3534 -0.6346,-0.3534 0,0 -1.8505,-0.6534 -1.8505,-0.6534 0,0 -0.7456,-0.089 -0.7456,-0.089 -0.3476,-0.6398 -0.5386,-0.4539 -1.097,-0.7755 -0.5225,-0.3005 -0.9827,-0.6483 -1.5782,-0.8438 -0.926,-0.3041 -1.1755,-0.4717 -1.8883,-1.0968 0,0 -0.7069,-0.7135 -0.7069,-0.7135 -0.3336,-0.2177 -0.8415,-0.1695 -1.3826,-0.4362 0,0 -0.7731,-0.556 -0.7731,-0.556 0,0 -2.6065,-1.2506 -2.6065,-1.2506 0,0 -0.9201,-0.206 -0.9201,-0.206 0,0 0.1078,-0.2567 0.1078,-0.2567 0,0 -0.7608,-0.098 -0.7608,-0.098 -0.2639,-0.1014 -0.3787,-0.3502 -0.6699,-0.4905 0,0 -3.4085,-0.9385 -3.4085,-0.9385 -0.6656,-0.2021 -1.7239,-0.4653 -2.3256,-0.055 0,0 -1.1807,-0.64 -1.1807,-0.64 -0.3686,-0.2675 -0.3123,-0.492 -0.5976,-0.7449 -0.2615,-0.2298 -0.7573,-0.4444 -1.0724,-0.6155 -1.118,-0.6057 -0.5535,-0.5836 -1.9163,-0.7635 -0.2544,-0.337 -1.2186,-0.7469 -1.6815,-0.766 -0.187,-0.01 -0.5216,0.073 -0.7247,0.1039 -0.2096,-0.5847 -0.643,-0.8096 -1.182,-1.1802 -1.0785,-0.7397 -1.9936,-1.2958 -3.3156,-1.6925 0,0 -1.1037,-0.2377 -1.1037,-0.2377 -0.1339,-0.086 -0.1813,-0.2287 -0.2693,-0.3438 0,0 -0.3697,-0.4034 -0.3697,-0.4034 -0.2742,-0.4152 -0.4273,-1.2409 -0.3665,-1.716 -0.794,-0.3572 -0.677,-0.7904 -1.1426,-1.3221 0,0 -0.9462,-1.1824 -0.9462,-1.1824 -0.3045,-0.3269 -0.7377,-0.5711 -0.9912,-0.937 -0.2385,-0.3428 -0.4427,-1.3668 -0.595,-1.787 0,0 -0.4063,-0.769 -0.4063,-0.769 -0.093,-0.356 0.6098,-1.4894 0.3554,-2.0233 -0.271,-0.5692 -0.7929,-0.7086 -1.3274,-0.9858 0,0 -0.9818,-0.5917 -0.9818,-0.5917 0,0 -0.8557,-0.3592 -0.8557,-0.3592 -0.546,-0.2924 -0.5043,-0.6156 -1.3576,-0.496 -0.3846,-0.6235 -0.3116,-1.0396 -1.1219,-1.3233 0.022,-0.5283 -0.7364,-1.2666 -1.2973,-1.4755 0,0 0.1405,-0.3347 0.1405,-0.3347 0.052,-0.4529 -0.2859,-0.5709 -0.692,-0.7117 0,0 -0.056,-0.5295 -0.056,-0.5295 0,0 0.092,-0.509 0.092,-0.509 -0.012,-0.4777 -0.304,-0.9431 -0.7982,-1.1406 0,0 0.1078,-0.2568 0.1078,-0.2568 0,0 -1.1401,-0.7475 -1.1401,-0.7475 0,0 0.2339,-1.0894 0.2339,-1.0894 0,0 -0.3951,-0.1246 -0.3951,-0.1246 0,0 0.1079,-0.2568 0.1079,-0.2568 0,0 -1.0599,-0.1501 -1.0599,-0.1501 -0.3954,-0.1316 -0.4829,-0.3521 -0.8015,-0.4777 -0.289,-0.1133 -0.7203,-0.08 -0.9909,-0.2293 0,0 -1.2054,-1.1324 -1.2054,-1.1324 -0.1899,-0.1684 -0.2995,-0.2855 -0.5193,-0.4304 -0.5681,-0.3731 -0.7143,-0.3552 -0.4682,-1.0133 0,0 -0.6282,-0.7226 -0.6282,-0.7226 0,0 -0.4309,-0.4838 -0.4309,-0.4838 0.4874,-0.2951 0.1837,-0.8048 -0.038,-1.1985 -0.4689,-0.8303 -0.9573,-0.871 -1.2707,-1.1792 0,0 -0.2702,-0.3528 -0.2702,-0.3528 0,0 -0.3665,-0.262 -0.3665,-0.262 -0.3344,-0.2848 -0.072,-0.3057 -0.7022,-0.5569 0,0 0.1438,-0.3424 0.1438,-0.3424 0,0 -0.3951,-0.1246 -0.3951,-0.1246 0,0 0.1079,-0.2568 0.1079,-0.2568 -0.9638,-0.4668 -0.1794,-0.8165 -1.4902,-1.2455 0.092,-0.4237 0.06,-0.5247 -0.3409,-0.7861 -0.1256,-0.564 -0.5028,-0.494 -0.8086,-0.9162 -0.1954,-0.2671 -0.1725,-0.5293 -0.3632,-0.8715 -0.2052,-0.3662 -0.8775,-0.9893 -1.2246,-1.2946 0,0 0.5839,-0.5913 0.5839,-0.5913 0,0 -0.7542,-0.3348 -0.7542,-0.3348 0,0 0.1438,-0.3424 0.1438,-0.3424 0,0 -1.6231,-0.3511 -1.6231,-0.3511 -0.3147,-0.015 -0.5892,0.1912 -1.0483,0.054 -0.7214,-0.2157 -0.5217,-0.6541 -1.8095,-1.0177 0,0 -1.0258,-0.1859 -1.0258,-0.1859 -0.2887,-0.1462 -0.165,-0.3555 -0.4431,-0.6148 0,0 -0.4052,-0.3295 -0.4052,-0.3295 0,0 -2.2762,-2.5936 -2.2762,-2.5936 -0.4664,-0.3914 -1.1112,-0.3687 -1.67,-0.5268 0,0 -0.7502,-0.3443 -0.7502,-0.3443 0,0 0.126,-0.8326 0.126,-0.8326 -0.7582,-0.3758 -0.1948,-0.74 -1.122,-1.3233 0.056,-0.5533 -0.4476,-1.664 -0.789,-2.1401 0,0 -0.4261,-0.4901 -0.4261,-0.4901 -0.3545,-0.4579 -0.096,-0.5362 -0.804,-0.8178 0,0 -0.1499,-0.7296 -0.1499,-0.7296 0,0 0.012,-0.5429 0.012,-0.5429 0,0 -0.2121,-0.6001 -0.2121,-0.6001 0,0 0.281,-0.6693 0.281,-0.6693 0,0 -0.8102,-0.1587 -0.8102,-0.1587 0.058,-0.9074 -0.2913,-0.1372 0.243,-1.3774 0,0 -0.6554,-0.3036 -0.6554,-0.3036 0,0 -0.073,-0.7141 -0.073,-0.7141 0,0 0.4142,-0.6321 0.4142,-0.6321 0,0 -0.9157,-0.4828 -0.9157,-0.4828 0,0 0.7817,-1.5951 0.7817,-1.5951 0,0 -0.2962,-0.093 -0.2962,-0.093 0.3525,-0.735 0.2152,-0.3421 0.3347,-1.074 0.071,-0.436 0.25,-0.3448 -0.074,-0.8792 0,0 1.0596,0.1403 1.0596,0.1403 0,0 -0.4224,0.7392 -0.4224,0.7392 0,0 0.7902,0.2493 0.7902,0.2493 0,0 0.1496,-0.6227 0.1496,-0.6227 0.1919,-0.4415 0.5945,-0.3 0.2011,-1.0115 0.1875,-0.06 0.4849,-0.132 0.5818,-0.2962 0.2175,-0.3668 -0.6311,-0.6597 -0.9438,-0.5915 -0.2571,0.056 -0.4392,0.3161 -0.5897,0.4905 0,0 -0.1975,-0.062 -0.1975,-0.062 0,0 -0.4757,-0.7316 -0.4757,-0.7316 0,0 0.3773,-0.3656 0.3773,-0.3656 0,0 -1.0656,-0.9701 -1.0656,-0.9701 0,0 -1.7141,-0.9333 -1.7141,-0.9333 0,0 -0.9833,-0.8996 -0.9833,-0.8996 0,0 -0.8035,-0.5956 -0.8035,-0.5956 0,0 -1.0116,-2.0387 -1.0116,-2.0387 0,0 -0.4652,-0.1467 -0.4652,-0.1467 -0.1164,-0.6707 -1.0988,-0.9893 -1.7933,-1.0562 0,0 -0.9113,-1.0019 -0.9113,-1.0019 0,0 -1.5929,-1.8237 -1.5929,-1.8237 0.02,-0.4153 -0.049,-0.378 -0.3422,-0.6711 -0.773,-0.7721 -0.6795,-0.3742 -1.4711,-0.8702 0.4953,-0.7986 -0.074,-0.542 -0.4171,-1.3238 -0.1405,-0.3206 -0.1105,-0.5438 -0.3603,-0.8465 -0.2101,-0.2534 -0.464,-0.3306 -0.5477,-0.5334 -0.1016,-0.2482 -0.097,-1.3119 0,-1.5923 0,0 -0.8798,-0.5684 -0.8798,-0.5684 0,0 0.126,-0.8326 0.126,-0.8326 0,0 0.476,-0.3345 0.476,-0.3345 -1.2318,-0.3506 -0.9141,0.3097 -1.9306,0.07 0,0 -0.1437,0.3424 -0.1437,0.3424 0,0 -0.8529,-0.366 -0.8529,-0.366 0,0 0.1438,-0.3424 0.1438,-0.3424 -1.4502,-0.5282 -0.6576,-0.8976 -1.8852,-1.3701 -0.154,-0.6719 -0.7255,-0.7038 -0.9187,-1.0508 -0.1429,-0.2563 0.01,-0.672 -0.014,-0.8737 -0.052,-0.4806 -0.5397,-0.7548 -1.0064,-0.9164 -0.2382,0.2476 -0.2747,0.2254 -0.6376,0.1865 0,0 -0.126,0.8327 -0.126,0.8327 -0.6694,0.01 -0.6262,0.2367 -0.7545,0.7313 -0.6297,0.064 -0.5794,0.1013 -1.1942,-0.086 -0.2009,0.3079 -0.3858,0.4473 -0.7723,0.2411 0.6393,-0.1454 0.4171,-0.7671 -0.1019,-0.8203 -0.62,-0.063 -1.2285,0.4568 -1.7625,0.615 0,0 -2.187,0.2649 -2.187,0.2649 0,0 -1.4232,0.4138 -1.4232,0.4138 0,0 -0.7715,0.018 -0.7715,0.018 -0.5642,0.034 -1.77,0.188 -2.2765,-0.06 0,0 -1.0964,-0.7743 -1.0964,-0.7743 0,0 -0.9313,-0.3684 -0.9313,-0.3684 0,0 -0.179,-1.7044 -0.179,-1.7044 0,0 -1.0773,-0.6306 -1.0773,-0.6306 0,0 0.057,-1.0919 0.057,-1.0919 0,0 -0.3708,-0.558 -0.3708,-0.558 0,0 0.9248,0.1948 0.9248,0.1948 0,0 0.1797,-0.428 0.1797,-0.428 0,0 -0.7541,-0.3348 -0.7541,-0.3348 0,0 0.1797,-0.428 0.1797,-0.428 0,0 0.8889,0.2804 0.8889,0.2804 0,0 0.5929,-0.8792 0.5929,-0.8792 0.9514,0.036 0.8146,-0.6639 1.3828,-1.0052 0.2793,-0.1668 0.6322,-0.1737 0.9358,-0.2893 0,0 0.7151,-0.4006 0.7151,-0.4006 0.487,-0.1847 0.4771,-0.073 1.2728,-0.4127 0.583,-0.2485 0.7078,-0.1035 1.0999,-0.6457 0.2785,0.01 0.6044,0.02 0.8648,-0.083 0.4619,-0.1838 0.7697,-0.7304 1.5509,-0.609 0,0 0.2156,-0.5135 0.2156,-0.5135 -0.3702,-0.1759 -0.3899,-0.2249 -0.5475,-0.5605 0.6234,-0.129 0.5661,-0.5038 0.6901,-0.9455 0.2087,-0.7474 0.6745,-0.9882 -0.3122,-1.5525 0,0 0.2517,-0.5991 0.2517,-0.5991 0,0 -0.992,-0.2558 -0.992,-0.2558 0,0 -1.0101,-0.5696 -1.0101,-0.5696 0,0 0.1437,-0.3424 0.1437,-0.3424 -1.1346,-0.5072 -0.6984,-0.8455 -1.4182,-1.4167 0.253,-0.8634 0.5945,-0.7789 1.4458,-0.5133 -0.146,0.3853 -0.1721,1.073 0.2287,1.3759 0.1423,0.087 0.3619,0.1022 0.5442,0.1716 0,0 0.4656,0.2972 0.4656,0.2972 0,0 -0.1077,0.2568 -0.1077,0.2568 0,0 1.257,0.2026 1.257,0.2026 0,0 0.1797,-0.428 0.1797,-0.428 0.6284,0.054 0.856,-0.038 1.2124,-0.4898 0.5334,0.059 0.7981,0.067 1.1404,-0.3189 0,0 0.8529,0.366 0.8529,0.366 0,0 0.2876,-0.6847 0.2876,-0.6847 0.6715,0.1613 0.5105,0.01 1.0157,0.01 0.6766,-0.01 1.0803,0.4048 1.0945,-0.5 0.4948,0.018 0.5458,-0.066 0.7455,-0.4434 0,0 0.2963,0.093 0.2963,0.093 0,0 0.1437,-0.3424 0.1437,-0.3424 0.4877,-0.08 0.5882,-0.2555 0.8173,-0.6145 1.0318,0.052 0.7553,-0.3337 0.8624,-0.9881 0,0 0.7901,0.2492 0.7901,0.2492 0,0 0.6648,-1.0504 0.6648,-1.0504 0,0 0.4938,0.1557 0.4938,0.1557 0,0 0.5929,-0.8792 0.5929,-0.8792 0,0 0.3951,0.1246 0.3951,0.1246 0.2862,-0.4632 0.4716,-0.4173 1.0294,-0.2568 0,0 0.2401,-0.5718 0.2401,-0.5718 0,0 0.4898,-0.3699 0.4898,-0.3699 0,0 0.084,-0.6386 0.084,-0.6386 0,0 0.3578,-0.4736 0.3578,-0.4736 0,0 0.7901,0.2493 0.7901,0.2493 0,0 -0.01,-0.7783 -0.01,-0.7783 0,0 0.7183,0.4204 0.7183,0.4204 0,0 0.3234,-0.7703 0.3234,-0.7703 0.1,0.4357 0.1187,0.5405 0.5745,0.7628 0,0 0.1351,-1.1206 0.1351,-1.1206 0,0 0.395,0.1246 0.395,0.1246 0,0 0.4582,-0.8248 0.4582,-0.8248 0,0 0.4401,-0.2489 0.4401,-0.2489 1.0049,0.046 0.978,-1.0078 2.2182,-0.7543 0,0 0.2156,-0.5135 0.2156,-0.5135 0,0 0.2962,0.093 0.2962,0.093 0,0 0.1438,-0.3424 0.1438,-0.3424 0.5415,0.045 1.0715,0.035 1.4727,-0.3109 0.6284,0.022 0.6416,-0.196 0.6198,-0.6769 0,0 0.4939,0.1558 0.4939,0.1558 0.4573,-1.0548 0.7016,-0.5125 1.4639,-1.0891 0,0 0.4939,0.1557 0.4939,0.1557 0,0 0.1437,-0.3424 0.1437,-0.3424 0,0 0.2963,0.093 0.2963,0.093 0,0 0.1438,-0.3424 0.1438,-0.3424 0,0 0.4669,-0.046 0.4669,-0.046 0,0 0.386,0.4125 0.386,0.4125 0.214,-0.4908 0.2429,-0.6484 0.88,-0.4978 0,0 0.2157,-0.5136 0.2157,-0.5136 0,0 -0.2603,-0.179 -0.2603,-0.179 0.6383,-0.071 0.6476,-0.2717 1.0123,-0.3651 0,0 0.6738,-0.049 0.6738,-0.049 0.3536,-0.088 0.7479,-0.5318 0.9453,-0.7914 0.798,0.1636 1.0269,-0.2721 1.4549,-0.8011 0,0 0.4937,0.1558 0.4937,0.1558 0.3831,-0.6324 0.4659,-0.9388 1.3203,-0.7468 0,0 0.1527,-0.6303 0.1527,-0.6303 0,0 0.3054,-0.1945 0.3054,-0.1945 0,0 1.4546,0.265 1.4546,0.265 0,0 0.3144,-0.4824 0.3144,-0.4824 0.4845,0.138 1.1,0.2277 1.553,-0.041 0,0 0.5041,-0.4467 0.5041,-0.4467 0,0 0.628,-0.3128 0.628,-0.3128 0.4586,0.2289 0.6454,0.3887 1.0955,0.055 0,0 0.4938,0.1558 0.4938,0.1558 0.3396,-0.7294 0.4604,-0.4198 0.9813,-0.6162 0,0 0.4437,-0.239 0.4437,-0.239 0.6296,-0.2502 1.2104,-0.1552 1.8257,0.039 0,0 0.018,-0.5758 0.018,-0.5758 0,0 0.8889,0.2803 0.8889,0.2803 0.3329,-0.3612 0.6206,-0.3538 1.1045,-0.2332 0,0 0.1438,-0.3424 0.1438,-0.3424 0,0 0.2963,0.094 0.2963,0.094 0,0 0.3863,-0.6536 0.3863,-0.6536 0.4454,0.1246 0.5614,0.1839 0.9339,-0.093 0.4401,0.5179 -0.1012,1.2826 0.3055,1.8373 0.2355,0.3206 0.6617,0.3125 0.8742,-0.015 0.1657,-0.2559 0.1518,-0.841 0.095,-1.1293 0.5935,-0.2548 0.3096,-0.4229 0.2608,-0.8871 0,0 0.6466,-0.4745 0.6466,-0.4745 0,0 -0.1438,0.3423 -0.1438,0.3423 0.5292,0.088 0.7543,0 1.1405,-0.3187 0,0 0.2962,0.093 0.2962,0.093 0,0 0.081,0.6071 0.081,0.6071 0,0 0.7902,0.2492 0.7902,0.2492 0,0 0.7996,-0.4554 0.7996,-0.4554 0,0 0.9337,-0.7426 0.9337,-0.7426 0,0 0.4938,0.1558 0.4938,0.1558 0,0 0.1078,-0.2568 0.1078,-0.2568 0,0 1.0595,0.1403 1.0595,0.1403 0,0 0.1438,-0.3423 0.1438,-0.3423 0.8606,0.01 0.7311,-0.3162 0.8264,-0.9025 0.4337,0.1123 0.566,0.1649 0.9339,-0.093 0.4634,0.111 1.331,0.04 1.7905,-0.087 0,0 0.5001,-0.1709 0.5001,-0.1709 0,0 1.4449,-0.1142 1.4449,-0.1142 0,0 0.1797,-0.4279 0.1797,-0.4279 0.4243,0.02 0.4602,0.01 0.7723,-0.2411 0,0 0.395,0.1246 0.395,0.1246 0.3483,-0.7499 0.5823,-0.5608 1.3006,-0.8063 0,0 0.7315,-0.344 0.7315,-0.344 0,0 0.8437,-0.2272 0.8437,-0.2272 1.3219,-0.5776 1.1112,-1.00563 1.9057,-1.86389 0.4175,-0.45093 0.6298,-0.81526 1.3616,-0.73367 0,0 0.4223,-0.73922 0.4223,-0.73922 0,0 0.6734,0.069 0.6734,0.069 0,0 0.5482,0.17292 0.5482,0.17292 0,0 1.059,0.18667 1.059,0.18667 0,0 0.1798,-0.42791 0.1798,-0.42791 0,0 -0.3592,-0.21022 -0.3592,-0.21022 0,0 0.6017,-0.10098 0.6017,-0.10098 0,0 0.1438,-0.34243 0.1438,-0.34243 0.4334,0.0679 0.4868,0.0496 0.7722,-0.24103 0,0 0.7901,0.24923 0.7901,0.24923 0.2261,-0.34648 0.3567,-0.39929 0.8083,-0.32671 0,0 0.1797,-0.4279 0.1797,-0.4279 0,0 0.9248,0.19477 0.9248,0.19477 0,0 0.054,-0.66147 0.054,-0.66147 0,0 0.7647,-0.6806 0.7647,-0.6806 0,0 0.9328,-0.43185 0.9328,-0.43185 1.1256,-0.0357 2.2573,-0.67985 3.3404,-0.49718 0.199,-0.26585 0.2028,-0.30433 0.5749,-0.30337 0.3488,-0.60429 0.5364,-0.48114 1.14,-0.74923 0.5536,-0.24513 0.5102,-0.39742 1.2218,-0.34744 0.1338,-0.23596 0.2646,-0.49132 0.6033,-0.53374 0,0 1.5098,0.0536 1.5098,0.0536 0.2882,0.07 0.4199,0.20127 0.7535,0.23772 0.998,0.11121 1.8453,-0.26607 3.2573,0.0416 0.2861,-0.28195 0.4426,-0.21225 0.8351,-0.12432 0,0 1.9669,-1.22132 1.9669,-1.22132 0,0 0.395,0.12464 0.395,0.12464 0.2374,-0.30699 0.5806,-0.5729 1.0319,-0.58761 0.654,-0.0203 1.106,0.41581 1.6801,-0.0112 1.1369,0.32352 1.5602,-0.31429 2.7297,-0.10823 0,0 0.018,-0.57588 0.018,-0.57588 1.6961,0.17446 0.8778,-0.51892 2.417,-0.42887 0.6222,0.0362 0.578,0.0458 1.1227,0.25627 0.3108,0.12011 1.5589,0.2213 1.9204,0.21022 0,0 0.6282,-0.079 0.6282,-0.079 0.3131,0.024 0.4702,0.188 0.7625,0.24055 0.4038,0.0234 0.7382,-0.16552 1.1946,-0.1815 0.427,-0.0155 0.8619,0.15267 1.542,0.0437 0.4901,-0.078 0.5874,-0.26154 1.012,-0.43105 0,0 1.2061,-0.44048 1.2061,-0.44048 0,0 0.6318,-0.17292 0.6318,-0.17292 0.6411,-0.24566 1.1167,-0.63749 1.9455,-0.82677 0.6617,-0.15091 0.86,0.0987 1.5336,0.12997 0.9027,0.0426 1.7537,-0.18645 1.8968,-0.19162 0.2707,-0.0107 0.3895,0.10071 1.0617,0.0712 0.5237,0.61202 0.7347,0.47704 1.3229,0.83412 0.2686,0.16221 0.2905,0.29906 0.4998,0.46398 0,0 0.6015,0.36226 0.6015,0.36226 0,0 0.9261,0.74865 0.9261,0.74865 0.2355,0.22748 0.3483,0.4036 0.6344,0.6199 1.1339,0.85789 1.2366,0.69056 2.4998,0.97171 0.5343,0.11809 0.8629,0.25973 1.4601,0.24928 0.8745,-0.016 1.3095,-0.37786 1.8826,-0.56544 0,0 0.7836,-0.12405 0.7836,-0.12405 0.6441,-0.17292 0.6069,-0.4173 1.4202,-0.24993 0.3588,-0.38021 0.6209,-0.25871 1.125,-0.30331 0.6635,-0.0592 0.4897,-0.22845 1.2456,-0.0149 0,0 -0.1078,0.25679 -0.1078,0.25679 1.6247,0.64532 2.0089,1.33642 2.4569,1.6067 0,0 0.8888,0.2804 0.8888,0.2804 0,0 0.9402,0.42449 0.9402,0.42449 0.3189,0.1142 1.634,0.40494 1.9566,0.39039 0.9642,-0.0432 1.8981,-1.19067 2.1756,-1.30279 0.4428,-0.17825 1.0736,0.04 1.7207,0.0144 0,0 0.7212,-0.0633 0.7212,-0.0633 0.5391,-0.0187 0.9218,0.11926 1.6509,-0.0272 0,0 0.6675,-0.1888 0.6675,-0.1888 0,0 0.7854,-0.0644 0.7854,-0.0644 0.5983,-0.0904 0.4167,-0.24656 1.1658,-0.0781 0.01,0.5274 0.4473,0.73528 0.8976,1.05858 0,0 -0.1438,0.34232 -0.1438,0.34232 0.667,0.31611 0.5843,0.88325 1.178,1.20042 0.5402,0.28771 1.272,0.19088 1.8612,0.1596 1.0403,-0.0537 2.9497,0.45461 3.7397,-0.19093 0.3952,0.11617 0.9332,0.23335 1.3497,0.24838 0.5404,0.0181 1.0737,-0.08 1.5642,0.21427 0.2447,0.14697 0.224,0.30811 0.4909,0.51157 0,0 1.4171,0.85991 1.4171,0.85991 0.4425,0.31509 0.9476,0.84371 1.4744,1.01669 1.3139,0.43206 3.0247,0.13215 3.7776,0.54706 0.4831,0.2667 0.731,0.88 1.1038,1.22541 0,0 1.9307,1.18193 1.9307,1.18193 0.9315,0.477 2.1071,0.5328 3.1295,0.8039 0.4934,0.1301 0.4758,0.3236 1.0375,0.4591 1.1414,0.2758 0.935,0.6207 1.6768,1.3336 -0.3467,0.5168 -0.7872,1.2299 -0.1532,1.6964 -0.068,0.2394 -0.1161,0.3996 -0.05,0.65 0.069,0.2573 0.2579,0.4459 0.3984,0.6734 0.3146,0.5131 0.4181,0.9617 0.9981,1.3306 0.218,1.1506 2.5353,1.1401 3.5507,1.0581 0.3392,-0.028 0.6508,-0.019 0.9744,-0.1152 0.6133,0.3214 0.973,0.2051 1.6286,0.6494 0,0 1.2841,0.913 1.2841,0.913 0.21,0.166 0.443,0.4286 0.6879,0.5194 0,0 0.6239,0.1097 0.6239,0.1097 0,0 0.5926,0.1868 0.5926,0.1868 0,0 2.0375,0.2085 2.0375,0.2085 0,0 1.0436,0.4445 1.0436,0.4445 0.3802,0.1199 1.5987,0.6352 1.7467,0.9407 0.1046,0.2172 -0.018,0.482 -0.065,0.6978 0,0 -0.098,1.0353 -0.098,1.0353 -0.05,0.283 -0.1747,0.3928 -0.1576,0.6124 0,0 0.387,1.0517 0.387,1.0517 0,0 0.1289,0.5456 0.1289,0.5456 0.075,0.198 0.4845,0.9235 0.6273,1.0974 0.2203,0.2692 0.334,0.3099 0.618,0.4994 0.9951,0.6638 1.0083,0.6108 2.1822,0.9743 0.4267,0.1289 0.5092,0.1725 0.9607,0.1092 0,0 -0.1169,0.5447 -0.1169,0.5447 0.7044,0.1204 0.7976,-0.1283 1.2487,-0.063 0.3351,0.083 0.5058,0.4338 1.0805,0.3407 0.4351,-0.1011 0.4492,-0.3797 1.6088,-0.6004 0.6566,-0.1253 1.0769,0.033 1.6652,-0.2366 0.7377,0.3714 1.2159,0.9797 1.846,1.4634 0,0 0.7322,0.3871 0.7322,0.3871 0,0 0.6026,0.4295 0.6026,0.4295 0,0 0.6005,0.3222 0.6005,0.3222 0.3319,0.2298 1.1379,0.6488 1.5635,0.4932 0.1588,-0.072 0.1919,-0.1508 0.2842,-0.2534 0,0 0.862,0.078 0.862,0.078 0.5186,-0.6332 1.4802,-0.5819 2.2871,-0.6764 0,0 0.6314,-0.1023 0.6314,-0.1023 0.6058,-0.026 2.2304,0.4147 2.8836,0.5452 0,0 3.6259,0.6872 3.6259,0.6872 0.1513,1.7703 1.3618,2.5098 2.7181,3.624 0.1572,0.129 0.9608,1.2249 1.4688,1.5867 0.3495,0.2489 1.4638,0.5383 1.9439,0.6976 0.5682,0.1889 0.4876,0.2449 0.8461,0.3822 0,0 0.8888,0.2803 0.8888,0.2803 -0.02,0.499 0.3454,0.7488 0.7884,1.0523 0.5809,0.3985 0.9137,0.3968 1.2034,0.5512 0.2567,0.1372 0.4523,0.4171 0.6902,0.6045 0.2167,0.1711 0.4012,0.2244 0.5196,0.4857 0.1595,0.3527 -0.1022,0.9546 0.444,1.5766 0.4715,0.5365 1.1157,0.51 1.6946,0.8574 1.0791,0.6476 0.934,0.8811 1.415,1.2034 0.7586,0.5078 2.1197,0.8276 3.0711,1.9682 0.3101,0.3721 0.01,0.4865 -0.081,0.8634 -0.091,0.3987 -0.051,1.3865 0.1496,1.7503 0,0 0.7352,0.7582 0.7352,0.7582 0.4969,0.5745 1.1311,1.2855 1.7736,1.745 0,0 0.4916,0.2782 0.4916,0.2782 0,0 0.3672,0.2893 0.3672,0.2893 0,0 1.5973,0.6309 1.5973,0.6309 0.4278,0.3608 -0.1082,0.8169 0.7022,1.3266 0.041,0.9106 0.4656,1.1152 1.1747,1.6558 0.2059,0.1571 0.2798,0.2685 0.5349,0.4014 0.4371,0.227 0.951,0.2389 2.05,0.951 0,0 0.5169,0.4151 0.5169,0.4151 0,0 0.7072,0.4228 0.7072,0.4228 0.4559,0.3017 0.3324,0.3801 0.9739,0.6503 0,0 -0.4313,1.0271 -0.4313,1.0271 0,0 -0.087,1.2327 -0.087,1.2327 0,0 0.395,0.1246 0.395,0.1246 -0.1078,0.6775 0.1531,0.6076 0.4937,1.0989 0,0 0.405,0.7666 0.405,0.7666 0,0 0.3071,0.4565 0.3071,0.4565 0,0 0.1914,0.5111 0.1914,0.5111 0,0 0.6759,1.0749 0.6759,1.0749 0.4038,0.3969 1.501,0.775 1.7956,0.9949 0,0 1.2639,1.1771 1.2639,1.1771 0.2258,0.2398 0.2607,0.3565 0.5644,0.5948 0,0 1.0658,0.6474 1.0658,0.6474 0,0 0.7113,0.7138 0.7113,0.7138 0,0 1.3296,1.0525 1.3296,1.0525 0.8013,0.8934 0.069,1.5853 0.5548,2.5779 0.4026,0.823 1.3515,0.9576 1.6723,1.1712 0,0 0.431,0.3744 0.431,0.3744 0,0 1.23,0.7757 1.23,0.7757 0,0 -0.1438,0.3424 -0.1438,0.3424 0,0 1.6339,0.9032 1.6339,0.9032 -0.4128,1.0126 -0.2187,1.0535 -0.1398,2.0321 0.028,0.358 -0.052,0.5449 0.061,0.9198 0,0 0.4477,0.9555 0.4477,0.9555 0.2332,0.5524 0.3504,0.9684 0.7755,1.469 0.2264,0.2652 0.9904,0.7601 1.4771,1.3644 0.654,0.8102 0.026,1.2042 0.7697,1.6958 -0.2757,0.9657 0.4942,1.6942 1.2689,2.305 0,0 0.5035,0.343 0.5035,0.343 0.4112,0.3605 0.011,0.423 0.9472,0.7302 -0.1106,0.503 0.042,0.4661 0.058,0.8995 0,0 -0.025,1.1195 -0.025,1.1195 0.1175,0.6255 0.3894,1.0834 0.1808,1.732 0.5193,0.3374 0.4148,0.5409 0.5707,1.0486 0.1953,0.6374 0.4263,1.3045 1.0715,1.699 -0.1708,0.7981 0.4943,0.5513 0.9301,1.1464 0.2728,0.3729 0.339,1.1285 0.2812,1.562 0.8295,0.2725 1.0901,0.7918 0.9153,1.5489 0,0 0.2963,0.093 0.2963,0.093 0,0 0.1968,2.1947 0.1968,2.1947 0,0 1.1761,0.6618 1.1761,0.6618 -0.1571,0.973 0.7404,1.4966 0.8888,2.4216 0.072,0.4463 -0.044,0.4804 -0.08,0.8384 0,0 0.044,0.7197 0.044,0.7197 -0.058,0.7569 -0.2848,0.4811 -0.1447,1.575 0,0 0.079,0.5978 0.079,0.5978 0.1056,0.3823 0.6798,1.3747 0.9484,1.7018 0.1873,0.2277 0.5777,0.5419 0.6762,0.7416 0.133,0.2716 0.073,0.8887 0.153,1.2841 0.2426,1.2146 0.4405,1.0017 0.5306,1.3917 0,0 -0.047,1.7096 -0.047,1.7096 -0.8754,0.3801 -0.8626,1.1005 -1.0141,1.8127 -0.094,0.4453 -0.275,0.5568 -0.108,1.0564 0.1768,0.5298 0.7749,1.236 0.7793,1.6756 0,0 0.7273,0.1325 0.7273,0.1325 0.4227,0.8497 0.6231,0.6628 1.0066,0.9854 0.4822,0.407 0.1075,0.4284 1.1658,0.7661 -0.2882,0.7049 -0.2689,0.9039 -0.042,1.6219 0.1651,0.5231 0.439,0.6192 0.3199,1.1798 0,0 0.2963,0.093 0.2963,0.093 -0.3019,0.7937 -0.018,0.7912 -0.7662,1.5021 z M 1380.8435,795.87917 c 0.044,-0.28936 0.023,-0.35037 0.3772,-0.36561 0,0 -0.3772,0.36561 -0.3772,0.36561 z m -54.3859,-56.12295 c 0,0 -0.2963,-0.0935 -0.2963,-0.0935 0,0 0.3413,-0.28012 0.3413,-0.28012 0,0 -0.045,0.37358 -0.045,0.37358 z m -104.0991,114.98536 c 0,0 -0.063,-0.1167 -0.063,-0.1167 0,0 0.099,0.031 0.099,0.031 0,0 -0.036,0.086 -0.036,0.086 z" />
  </g>
  <g
     inkscape:groupmode="layer"
     id="layer6"
     inkscape:label="leaves mask" />
  <g
     inkscape:groupmode="layer"
     id="layer5"
     inkscape:label="calyx stems" />
  <g
     inkscape:groupmode="layer"
     id="layer4"
     inkscape:label="calyx">
    <g
       id="g5932">
      <path
         transform="matrix(0.49767865,0,0,0.51140536,1766.5201,-264.43964)"
         d="m 2416.5038,2069.7541 c -49.7939,-63.2206 -23.5101,-155.549 40.6053,-197.5208 74.4648,-48.7469 175.3053,-24.394 226.8909,45.7667"
         sodipodi:t0="0.40000001"
         sodipodi:argument="-5.6410351"
         sodipodi:radius="183.17204"
         sodipodi:revolution="0.81"
         sodipodi:expansion="0.41999999"
         sodipodi:cy="2014"
         sodipodi:cx="2528"
         id="path5905"
         style="fill:none;stroke:#d39e00;stroke-width:13.86810683999999938;stroke-linecap:butt;stroke-linejoin:miter;stroke-miterlimit:4;stroke-opacity:1;stroke-dasharray:none"
         sodipodi:type="spiral" />
      <path
         style="fill:#d39e00;fill-opacity:1;stroke:none"
         inkscape:connector-curvature="0"
         id="Unnamed"
         d="m 2926.6708,775.6894 c 0,0 -27.8806,6.29565 -35.975,15.28943 0,0 -10.3428,9.89316 -15.7391,28.33041 -1.3491,5.39627 2.6982,12.59129 2.6982,28.3304 -3.1479,29.22979 -7.1951,50.36518 -4.9467,105.67678 0,0 5.3963,27.88072 13.9404,34.62605 0,0 1.3491,6.29564 6.7453,4.94657 0,0 -2.2484,-11.6919 -3.1478,-26.08195 0,0 6.2957,-71.05072 12.5912,-148.39723 0,0 2.6981,-13.49067 16.1888,-25.63228 0,0 9.8931,-4.04719 9.8931,-4.04719 0,0 -3.5975,5.39626 -2.6981,11.69191 0,0 -20.236,137.15514 -22.4844,174.47918 0,0 -0.8994,26.98132 -0.8994,26.98132 0,0 19.7863,-21.58504 27.8807,-44.0695 11.6919,-28.33026 31.4782,-104.77739 44.9689,-139.85313 1.3491,-9.89316 1.7987,-10.79254 -2.6982,-30.12916 0,0 13.041,11.69191 15.7392,25.63227 0,0 -1.3491,26.53165 -10.7926,36.42481 0,0 -12.1416,25.18258 -27.431,77.34651 0,0 -0.8994,8.99378 -2.6981,16.18866 0,0 -8.9938,21.13538 -16.1889,31.92792 0,0 -7.195,14.39005 -17.5378,22.48444 9.4435,-0.44968 6.2956,-0.89937 14.39,-4.0472 0,0 11.6919,-8.0944 15.7392,-20.68569 0,0 38.2235,-91.28673 45.4185,-101.17988 0,0 7.195,-17.08818 8.9938,-38.67325 0,0 2.2485,-12.1416 -1.349,-23.83352 -4.9466,-12.1416 -25.1826,-25.63227 -26.082,-35.52543 -5.8459,-4.0472 -8.0944,-44.51921 -33.7267,-6.74534 -0.8994,3.59751 -4.4969,6.74534 -10.7925,8.54409 z" />
    </g>
    <g
       id="g5936"
       transform="matrix(0.80441619,-0.05625026,0.05625026,0.80441619,625.38393,505.05938)">
      <path
         sodipodi:type="spiral"
         style="fill:none;stroke:#d39e00;stroke-width:13.86810683999999938;stroke-linecap:butt;stroke-linejoin:miter;stroke-miterlimit:4;stroke-opacity:1;stroke-dasharray:none"
         id="path5938"
         sodipodi:cx="2528"
         sodipodi:cy="2014"
         sodipodi:expansion="0.41999999"
         sodipodi:revolution="0.81"
         sodipodi:radius="183.17204"
         sodipodi:argument="-5.6410351"
         sodipodi:t0="0.40000001"
         d="m 2416.5038,2069.7541 c -49.7939,-63.2206 -23.5101,-155.549 40.6053,-197.5208 74.4648,-48.7469 175.3053,-24.394 226.8909,45.7667"
         transform="matrix(0.49767865,0,0,0.51140536,1766.5201,-264.43964)" />
      <path
         d="m 2926.6708,775.6894 c 0,0 -27.8806,6.29565 -35.975,15.28943 0,0 -10.3428,9.89316 -15.7391,28.33041 -1.3491,5.39627 2.6982,12.59129 2.6982,28.3304 -3.1479,29.22979 -7.1951,50.36518 -4.9467,105.67678 0,0 5.3963,27.88072 13.9404,34.62605 0,0 1.3491,6.29564 6.7453,4.94657 0,0 -2.2484,-11.6919 -3.1478,-26.08195 0,0 6.2957,-71.05072 12.5912,-148.39723 0,0 2.6981,-13.49067 16.1888,-25.63228 0,0 9.8931,-4.04719 9.8931,-4.04719 0,0 -3.5975,5.39626 -2.6981,11.69191 0,0 -20.236,137.15514 -22.4844,174.47918 0,0 -0.8994,26.98132 -0.8994,26.98132 0,0 19.7863,-21.58504 27.8807,-44.0695 11.6919,-28.33026 31.4782,-104.77739 44.9689,-139.85313 1.3491,-9.89316 1.7987,-10.79254 -2.6982,-30.12916 0,0 13.041,11.69191 15.7392,25.63227 0,0 -1.3491,26.53165 -10.7926,36.42481 0,0 -12.1416,25.18258 -27.431,77.34651 0,0 -0.8994,8.99378 -2.6981,16.18866 0,0 -8.9938,21.13538 -16.1889,31.92792 0,0 -7.195,14.39005 -17.5378,22.48444 9.4435,-0.44968 6.2956,-0.89937 14.39,-4.0472 0,0 11.6919,-8.0944 15.7392,-20.68569 0,0 38.2235,-91.28673 45.4185,-101.17988 0,0 7.195,-17.08818 8.9938,-38.67325 0,0 2.2485,-12.1416 -1.349,-23.83352 -4.9466,-12.1416 -25.1826,-25.63227 -26.082,-35.52543 -5.8459,-4.0472 -8.0944,-44.51921 -33.7267,-6.74534 -0.8994,3.59751 -4.4969,6.74534 -10.7925,8.54409 z"
         id="path5940"
         inkscape:connector-curvature="0"
         style="fill:#d39e00;fill-opacity:1;stroke:none" />
    </g>
    <g
       transform="matrix(0.83510668,0.30395398,-0.30395398,0.83510668,744.59129,-311.27586)"
       id="g5942">
      <path
         transform="matrix(0.49767865,0,0,0.51140536,1766.5201,-264.43964)"
         d="m 2416.5038,2069.7541 c -49.7939,-63.2206 -23.5101,-155.549 40.6053,-197.5208 74.4648,-48.7469 175.3053,-24.394 226.8909,45.7667"
         sodipodi:t0="0.40000001"
         sodipodi:argument="-5.6410351"
         sodipodi:radius="183.17204"
         sodipodi:revolution="0.81"
         sodipodi:expansion="0.41999999"
         sodipodi:cy="2014"
         sodipodi:cx="2528"
         id="path5944"
         style="fill:none;stroke:#d39e00;stroke-width:13.86810683999999938;stroke-linecap:butt;stroke-linejoin:miter;stroke-miterlimit:4;stroke-opacity:1;stroke-dasharray:none"
         sodipodi:type="spiral" />
      <path
         style="fill:#d39e00;fill-opacity:1;stroke:none"
         inkscape:connector-curvature="0"
         id="path5946"
         d="m 2926.6708,775.6894 c 0,0 -27.8806,6.29565 -35.975,15.28943 0,0 -10.3428,9.89316 -15.7391,28.33041 -1.3491,5.39627 2.6982,12.59129 2.6982,28.3304 -3.1479,29.22979 -7.1951,50.36518 -4.9467,105.67678 0,0 5.3963,27.88072 13.9404,34.62605 0,0 1.3491,6.29564 6.7453,4.94657 0,0 -2.2484,-11.6919 -3.1478,-26.08195 0,0 6.2957,-71.05072 12.5912,-148.39723 0,0 2.6981,-13.49067 16.1888,-25.63228 0,0 9.8931,-4.04719 9.8931,-4.04719 0,0 -3.5975,5.39626 -2.6981,11.69191 0,0 -20.236,137.15514 -22.4844,174.47918 0,0 -0.8994,26.98132 -0.8994,26.98132 0,0 19.7863,-21.58504 27.8807,-44.0695 11.6919,-28.33026 31.4782,-104.77739 44.9689,-139.85313 1.3491,-9.89316 1.7987,-10.79254 -2.6982,-30.12916 0,0 13.041,11.69191 15.7392,25.63227 0,0 -1.3491,26.53165 -10.7926,36.42481 0,0 -12.1416,25.18258 -27.431,77.34651 0,0 -0.8994,8.99378 -2.6981,16.18866 0,0 -8.9938,21.13538 -16.1889,31.92792 0,0 -7.195,14.39005 -17.5378,22.48444 9.4435,-0.44968 6.2956,-0.89937 14.39,-4.0472 0,0 11.6919,-8.0944 15.7392,-20.68569 0,0 38.2235,-91.28673 45.4185,-101.17988 0,0 7.195,-17.08818 8.9938,-38.67325 0,0 2.2485,-12.1416 -1.349,-23.83352 -4.9466,-12.1416 -25.1826,-25.63227 -26.082,-35.52543 -5.8459,-4.0472 -8.0944,-44.51921 -33.7267,-6.74534 -0.8994,3.59751 -4.4969,6.74534 -10.7925,8.54409 z" />
    </g>
  </g>
  <g
     inkscape:groupmode="layer"
     id="layer19"
     inkscape:label="another spiral"
     style="display:inline">
    <path
       id="path4048"
       style="fill:#d39e00;fill-opacity:1;stroke:none;display:inline"
       d="m 1158.8634,545.1126 c 3.6594,184.22944 60.6103,365.96139 145.2782,530.2137 207.7845,403.0932 636.0226,683.9731 1097.2284,644.5246 146.6041,-12.5395 292.6236,-60.8808 416.2824,-141.02 244.2027,-158.2597 407.2742,-458.4429 326.0906,-750.54527 -22.9448,-82.55647 -68.9147,-161.71216 -132.6655,-219.57704 -53.1576,-48.24977 -116.8386,-80.92491 -188.2629,-90.6706 -117.1162,-15.98008 -276.7589,67.2642 -238.5471,206.87977 -39.1648,-143.43572 127.8173,-232.4214 247.3835,-216.10698 72.9183,9.94955 137.9314,43.30814 192.201,92.56728 65.0844,59.07527 112.0159,139.88685 135.4407,224.17023 82.8819,298.21271 -83.6009,608.67531 -332.912,770.24561 -126.2455,81.8156 -279.3195,131.1681 -428.9904,143.97 -470.8535,40.2737 -908.0497,-246.4819 -1120.1807,-658.0072 -86.4391,-167.68822 -149.492,-353.929 -149.5238,-542.01221 l 18.2513,-13.37024"
       inkscape:connector-curvature="0"
       sodipodi:nodetypes="csssssscsssssscc" />
  </g>
  <g
     inkscape:groupmode="layer"
     id="layer2"
     inkscape:label="DHD"
     transform="translate(0,1005.9055)"
     style="display:none">
    <flowRoot
       xml:space="preserve"
       id="flowRoot4002"
       style="font-size:900px;font-style:normal;font-variant:normal;font-weight:normal;font-stretch:normal;text-align:start;line-height:125%;letter-spacing:0px;word-spacing:0px;writing-mode:lr-tb;text-anchor:start;fill:#08082d;fill-opacity:1;stroke:none;font-family:STHeiti;-inkscape-font-specification:STHeiti"
       transform="translate(-199.00465,-991.62606)"><flowRegion
         id="flowRegion4004"><rect
           id="rect4006"
           width="2733.0225"
           height="1301.8895"
           x="208.05014"
           y="100.38995"
           style="font-size:900px;font-style:normal;font-variant:normal;font-weight:normal;font-stretch:normal;text-align:start;line-height:125%;writing-mode:lr-tb;text-anchor:start;fill:#08082d;fill-opacity:1;font-family:STHeiti;-inkscape-font-specification:STHeiti" /></flowRegion><flowPara
         id="flowPara4008"
         style="font-size:900px;font-style:normal;font-variant:normal;font-weight:normal;font-stretch:normal;text-align:start;line-height:125%;letter-spacing:100px;writing-mode:lr-tb;text-anchor:start;fill:#08082d;fill-opacity:1;font-family:Comfortaa;-inkscape-font-specification:Comfortaa"><flowSpan
   style="fill:#d39e00;fill-opacity:1"
   id="flowSpan5662">d</flowSpan>h<flowSpan
   style="fill:#d39e00;fill-opacity:1"
   id="flowSpan3865">d</flowSpan></flowPara></flowRoot>  </g>
  <g
     inkscape:groupmode="layer"
     id="layer3"
     inkscape:label="des _eures"
     transform="translate(0,1005.9055)"
     style="display:inline">
    <g
       transform="translate(81.30919,-745.37812)"
       style="font-size:400px;font-style:normal;font-variant:normal;font-weight:normal;font-stretch:normal;text-align:start;line-height:114.99999762%;letter-spacing:0px;word-spacing:0px;writing-mode:lr-tb;text-anchor:start;fill:#000000;fill-opacity:1;stroke:none;font-family:Comfortaa;-inkscape-font-specification:Comfortaa"
       id="flowRoot4010">
      <path
         d="m 237.8125,284.7569 c -2e-4,-21.61445 -7.61738,-40.03891 -22.85156,-55.27344 -15.23454,-15.23419 -33.659,-22.85137 -55.27344,-22.85156 -21.61469,1.9e-4 -40.03915,7.61737 -55.27344,22.85156 -15.234427,15.23453 -22.851607,33.65899 -22.85156,55.27344 -4.7e-5,21.61467 7.617133,40.03913 22.85156,55.27344 15.23429,15.23441 33.65875,22.85159 55.27344,22.85156 21.61444,3e-5 40.0389,-7.61715 55.27344,-22.85156 15.23418,-15.23431 22.85136,-33.65877 22.85156,-55.27344 m 0,-187.890625 c -2e-4,-4.296574 1.49719,-7.942403 4.49219,-10.9375 3.12479,-3.124689 6.83572,-4.687187 11.13281,-4.6875 4.29665,3.13e-4 7.94248,1.562811 10.9375,4.6875 3.12477,2.995097 4.68727,6.640926 4.6875,10.9375 l 0,187.890625 c -2.3e-4,30.20841 -10.67731,55.98964 -32.03125,77.34375 -21.35435,21.35418 -47.13557,32.03125 -77.34375,32.03125 -30.20843,0 -55.98965,-10.67707 -77.34375,-32.03125 C 60.989557,340.74654 50.312484,314.96531 50.3125,284.7569 c -1.6e-5,-30.20819 10.677057,-55.98942 32.03125,-77.34375 21.3541,-21.35396 47.13532,-32.03103 77.34375,-32.03125 30.20818,2.2e-4 55.9894,10.67729 77.34375,32.03125 0.26021,0.2606 0.52063,0.52102 0.78125,0.78125 l 0,-111.328125"
         style="fill:#08082d;fill-opacity:1"
         id="path4819" />
      <path
         d="m 486.44531,269.1319 c -2.86478,-14.97382 -10.02623,-28.18995 -21.48437,-39.64844 -15.23454,-15.23419 -33.659,-22.85137 -55.27344,-22.85156 -21.61469,1.9e-4 -40.03915,7.61737 -55.27344,22.85156 -11.45839,11.45849 -18.61984,24.67462 -21.48437,39.64844 l 153.51562,0 m -16.60156,71.875 c 4.29669,5e-5 7.94252,1.56255 10.9375,4.6875 3.1248,2.99484 4.6873,6.64067 4.6875,10.9375 -2e-4,4.29691 -1.4976,8.00784 -4.49219,11.13281 -20.18247,17.57814 -43.94546,26.36719 -71.28906,26.36719 -30.20843,0 -55.98965,-10.67707 -77.34375,-32.03125 -21.35419,-21.35411 -32.03127,-47.13534 -32.03125,-77.34375 -2e-5,-30.20819 10.67706,-55.98942 32.03125,-77.34375 21.3541,-21.35396 47.13532,-32.03103 77.34375,-32.03125 30.20818,2.2e-4 55.9894,10.67729 77.34375,32.03125 21.35394,21.35433 32.03102,47.13556 32.03125,77.34375 -2.3e-4,4.29698 -1.56273,8.00791 -4.6875,11.13281 -2.99502,2.99489 -6.64085,4.49228 -10.9375,4.49219 l -170.50781,0 c 2.86453,14.97404 10.02598,28.19017 21.48437,39.64844 15.23429,15.23441 33.65875,22.85159 55.27344,22.85156 19.53111,3e-5 36.32796,-6.18486 50.39062,-18.55469 2.86441,-2.21349 6.11962,-3.32026 9.76563,-3.32031"
         style="fill:#08082d;fill-opacity:1"
         id="path4821" />
      <path
         d="m 588.98437,284.7569 c -11.849,-4.42697 -20.11722,-9.04936 -24.80468,-13.86719 -9.24481,-9.11445 -13.86721,-20.11704 -13.86719,-33.00781 -2e-5,-12.89046 4.81769,-24.15347 14.45312,-33.78906 18.74996,-19.14042 43.2291,-28.71072 73.4375,-28.71094 32.68216,2.2e-4 60.67692,13.08614 83.98438,39.25781 2.08314,2.47414 3.05971,5.53403 2.92969,9.17969 -1.9e-4,4.29704 -1.56269,8.00797 -4.6875,11.13281 -2.99498,2.99495 -6.64081,4.49234 -10.9375,4.49219 -4.29705,1.5e-4 -7.74757,-1.36703 -10.35157,-4.10156 -2.60432,-2.73422 -4.49234,-4.68734 -5.66406,-5.85938 -15.23452,-15.23419 -33.65898,-22.85137 -55.27344,-22.85156 -21.61466,1.9e-4 -38.86725,6.77101 -51.75781,20.3125 -3.12505,3.7762 -4.68754,8.26839 -4.6875,13.47656 0.39058,6.11994 3.58068,10.2866 9.57031,12.5 l 96.09375,31.83594 c 11.8488,4.42719 20.11702,9.04958 24.80469,13.86719 9.24461,9.11467 13.867,20.11726 13.86719,33.00781 -1.9e-4,12.89067 -4.81789,24.15368 -14.45313,33.78906 -18.75015,19.14064 -43.2293,28.71094 -73.4375,28.71094 -32.81257,0 -60.80733,-13.08592 -83.98437,-39.25781 -1.95314,-2.73434 -2.9297,-5.79423 -2.92969,-9.17969 -10e-6,-4.29682 1.49738,-7.94265 4.49219,-10.9375 3.12498,-3.12494 6.83591,-4.68744 11.13281,-4.6875 4.29684,6e-5 7.74736,1.36725 10.35156,4.10156 2.60413,2.73443 4.49215,4.68756 5.66407,5.85938 15.23431,15.23441 33.65877,22.85159 55.27343,22.85156 21.61446,3e-5 38.86705,-6.7708 51.75782,-20.3125 3.12484,-3.77599 4.68734,-8.26817 4.6875,-13.47656 -0.39079,-6.11972 -3.58089,-10.28639 -9.57032,-12.5 L 588.98437,284.7569"
         style="fill:#08082d;fill-opacity:1"
         id="path4823" />
      <path
         d="m 1295.0391,269.1319 c -2.8648,-14.97382 -10.0263,-28.18995 -21.4844,-39.64844 -15.2346,-15.23419 -33.659,-22.85137 -55.2734,-22.85156 -21.6147,1.9e-4 -40.0392,7.61737 -55.2735,22.85156 -11.4584,11.45849 -18.6198,24.67462 -21.4844,39.64844 l 153.5157,0 m -16.6016,71.875 c 4.2967,5e-5 7.9425,1.56255 10.9375,4.6875 3.1248,2.99484 4.6873,6.64067 4.6875,10.9375 -2e-4,4.29691 -1.4976,8.00784 -4.4922,11.13281 -20.1825,17.57814 -43.9455,26.36719 -71.289,26.36719 -30.2085,0 -55.9897,-10.67707 -77.3438,-32.03125 -21.3542,-21.35411 -32.0313,-47.13534 -32.0312,-77.34375 -1e-4,-30.20819 10.677,-55.98942 32.0312,-77.34375 21.3541,-21.35396 47.1353,-32.03103 77.3438,-32.03125 30.2081,2.2e-4 55.9894,10.67729 77.3437,32.03125 21.3539,21.35433 32.031,47.13556 32.0313,77.34375 -3e-4,4.29698 -1.5628,8.00791 -4.6875,11.13281 -2.9951,2.99489 -6.6409,4.49228 -10.9375,4.49219 l -170.5079,0 c 2.8646,14.97404 10.026,28.19017 21.4844,39.64844 15.2343,15.23441 33.6588,22.85159 55.2735,22.85156 19.5311,3e-5 36.3279,-6.18486 50.3906,-18.55469 2.8644,-2.21349 6.1196,-3.32026 9.7656,-3.32031"
         style="fill:#d39e00;fill-opacity:1"
         id="path4825" />
      <path
         d="m 1562.0313,378.5069 c -3e-4,4.29689 -1.5628,8.00782 -4.6875,11.13281 -2.9951,2.9948 -6.6409,4.49219 -10.9375,4.49219 -4.2971,0 -8.0081,-1.49739 -11.1329,-4.49219 -2.9949,-3.12499 -4.4923,-6.83592 -4.4921,-11.13281 l 0,-12.69531 c -19.5315,18.88022 -42.9689,28.32031 -70.3125,28.32031 -27.9949,0 -51.9532,-9.89582 -71.875,-29.6875 -19.7917,-19.92183 -29.6876,-43.88013 -29.6875,-71.875 l 0,-101.5625 c -1e-4,-4.29667 1.4973,-7.9425 4.4921,-10.9375 3.125,-3.12478 6.8359,-4.68728 11.1329,-4.6875 4.2968,2.2e-4 7.9426,1.56272 10.9375,4.6875 3.1249,2.995 4.6874,6.64083 4.6875,10.9375 l 0,101.5625 c -1e-4,19.40112 6.8358,36.00267 20.5078,49.80469 13.802,13.67191 30.4035,20.50784 49.8047,20.50781 19.4009,3e-5 35.9373,-6.8359 49.6093,-20.50781 13.8019,-13.80202 20.703,-30.40357 20.7032,-49.80469 l 0,-101.5625 c -2e-4,-4.29667 1.4972,-7.9425 4.4921,-10.9375 3.1248,-3.12478 6.8358,-4.68728 11.1329,-4.6875 4.2966,2.2e-4 7.9424,1.56272 10.9375,4.6875 3.1247,2.995 4.6872,6.64083 4.6875,10.9375 l 0,187.5"
         style="fill:#d39e00;fill-opacity:1"
         id="path4827" />
      <path
         d="m 1593.2813,191.0069 c -1e-4,-4.29667 1.4973,-7.9425 4.4921,-10.9375 3.125,-3.12478 6.8359,-4.68728 11.1329,-4.6875 4.2968,2.2e-4 7.9426,1.56272 10.9375,4.6875 3.1249,2.995 4.6874,6.64083 4.6875,10.9375 l 0,17.1875 c 21.8749,-21.87479 47.9165,-32.81228 78.125,-32.8125 15.2342,2.2e-4 29.2316,2.60438 41.9921,7.8125 2.3436,0.91167 4.4921,2.27885 6.4454,4.10156 2.9946,3.12521 4.492,6.83614 4.4921,11.13281 -10e-5,4.29707 -1.5626,8.008 -4.6875,11.13282 -2.9949,2.99497 -6.6408,4.49236 -10.9375,4.49218 -2.4741,1.8e-4 -4.7527,-0.52065 -6.8359,-1.5625 -9.2449,-3.90606 -19.4012,-5.85918 -30.4687,-5.85937 -21.6147,1.9e-4 -40.0392,7.61737 -55.2735,22.85156 -15.2344,15.23453 -22.8516,33.65899 -22.8515,55.27344 l 0,93.75 c -1e-4,4.29689 -1.5626,8.00782 -4.6875,11.13281 -2.9949,2.9948 -6.6407,4.49219 -10.9375,4.49219 -4.297,0 -8.0079,-1.49739 -11.1329,-4.49219 -2.9948,-3.12499 -4.4922,-6.83592 -4.4921,-11.13281 l 0,-187.5"
         style="fill:#d39e00;fill-opacity:1"
         id="path4829" />
      <path
         d="m 1966.9141,269.1319 c -2.8648,-14.97382 -10.0263,-28.18995 -21.4844,-39.64844 -15.2346,-15.23419 -33.659,-22.85137 -55.2734,-22.85156 -21.6147,1.9e-4 -40.0392,7.61737 -55.2735,22.85156 -11.4584,11.45849 -18.6198,24.67462 -21.4844,39.64844 l 153.5157,0 m -16.6016,71.875 c 4.2967,5e-5 7.9425,1.56255 10.9375,4.6875 3.1248,2.99484 4.6873,6.64067 4.6875,10.9375 -2e-4,4.29691 -1.4976,8.00784 -4.4922,11.13281 -20.1825,17.57814 -43.9455,26.36719 -71.289,26.36719 -30.2085,0 -55.9897,-10.67707 -77.3438,-32.03125 -21.3542,-21.35411 -32.0313,-47.13534 -32.0312,-77.34375 -1e-4,-30.20819 10.677,-55.98942 32.0312,-77.34375 21.3541,-21.35396 47.1353,-32.03103 77.3438,-32.03125 30.2081,2.2e-4 55.9894,10.67729 77.3437,32.03125 21.3539,21.35433 32.031,47.13556 32.0313,77.34375 -3e-4,4.29698 -1.5628,8.00791 -4.6875,11.13281 -2.9951,2.99489 -6.6409,4.49228 -10.9375,4.49219 l -170.5079,0 c 2.8646,14.97404 10.026,28.19017 21.4844,39.64844 15.2343,15.23441 33.6588,22.85159 55.2735,22.85156 19.5311,3e-5 36.3279,-6.18486 50.3906,-18.55469 2.8644,-2.21349 6.1196,-3.32026 9.7656,-3.32031"
         style="fill:#d39e00;fill-opacity:1"
         id="path4831" />
      <path
         d="m 2069.4531,284.7569 c -11.849,-4.42697 -20.1172,-9.04936 -24.8047,-13.86719 -9.2448,-9.11445 -13.8672,-20.11704 -13.8671,-33.00781 -1e-4,-12.89046 4.8176,-24.15347 14.4531,-33.78906 18.7499,-19.14042 43.2291,-28.71072 73.4375,-28.71094 32.6821,2.2e-4 60.6769,13.08614 83.9844,39.25781 2.0831,2.47414 3.0597,5.53403 2.9296,9.17969 -2e-4,4.29704 -1.5627,8.00797 -4.6875,11.13281 -2.9949,2.99495 -6.6408,4.49234 -10.9375,4.49219 -4.297,1.5e-4 -7.7475,-1.36703 -10.3515,-4.10156 -2.6044,-2.73422 -4.4924,-4.68734 -5.6641,-5.85938 -15.2345,-15.23419 -33.659,-22.85137 -55.2734,-22.85156 -21.6147,1.9e-4 -38.8673,6.77101 -51.7578,20.3125 -3.1251,3.7762 -4.6876,8.26839 -4.6875,13.47656 0.3905,6.11994 3.5806,10.2866 9.5703,12.5 l 96.0937,31.83594 c 11.8488,4.42719 20.117,9.04958 24.8047,13.86719 9.2446,9.11467 13.867,20.11726 13.8672,33.00781 -2e-4,12.89067 -4.8179,24.15368 -14.4531,33.78906 -18.7502,19.14064 -43.2293,28.71094 -73.4375,28.71094 -32.8126,0 -60.8074,-13.08592 -83.9844,-39.25781 -1.9531,-2.73434 -2.9297,-5.79423 -2.9297,-9.17969 0,-4.29682 1.4974,-7.94265 4.4922,-10.9375 3.125,-3.12494 6.8359,-4.68744 11.1328,-4.6875 4.2969,6e-5 7.7474,1.36725 10.3516,4.10156 2.6041,2.73443 4.4921,4.68756 5.664,5.85938 15.2343,15.23441 33.6588,22.85159 55.2735,22.85156 21.6144,3e-5 38.867,-6.7708 51.7578,-20.3125 3.1248,-3.77599 4.6873,-8.26817 4.6875,-13.47656 -0.3908,-6.11972 -3.5809,-10.28639 -9.5703,-12.5 l -96.0938,-31.83594"
         style="fill:#d39e00;fill-opacity:1"
         id="path4833" />
    </g>
    <text
       xml:space="preserve"
       style="font-size:900px;font-style:normal;font-variant:normal;font-weight:normal;font-stretch:normal;text-align:start;line-height:125%;letter-spacing:0px;word-spacing:0px;writing-mode:lr-tb;text-anchor:start;fill:#000000;fill-opacity:1;stroke:none;font-family:STHeiti;-inkscape-font-specification:STHeiti"
       x="383.01935"
       y="520.6488"
       id="text5535"
       sodipodi:linespacing="125%"><tspan
         sodipodi:role="line"
         id="tspan5537"
         x="383.01935"
         y="520.6488" /></text>
    <text
       xml:space="preserve"
       style="font-size:900px;font-style:normal;font-variant:normal;font-weight:normal;font-stretch:normal;text-align:start;line-height:125%;letter-spacing:0px;word-spacing:0px;writing-mode:lr-tb;text-anchor:start;fill:#000000;fill-opacity:1;stroke:none;font-family:STHeiti;-inkscape-font-specification:STHeiti"
       x="368.8772"
       y="529.13403"
       id="text5539"
       sodipodi:linespacing="125%"><tspan
         sodipodi:role="line"
         id="tspan5541"
         x="368.8772"
         y="529.13403" /></text>
  </g>
  <g
     style="display:inline"
     transform="translate(0,1005.9055)"
     inkscape:label="small h for tail flick"
     id="g4019"
     inkscape:groupmode="layer">
    <g
       transform="translate(788.23976,-745.37638)"
       style="font-size:400px;font-style:normal;font-variant:normal;font-weight:normal;font-stretch:normal;text-align:start;line-height:114.99999761999998782%;letter-spacing:0px;word-spacing:0px;writing-mode:lr-tb;text-anchor:start;fill:#08082d;fill-opacity:1;stroke:none;font-family:Comfortaa;-inkscape-font-specification:Comfortaa"
       id="flowRoot4021">
      <path
         d="m 167.5,97.2569 c -2e-5,-4.296574 1.49738,-7.942404 4.49219,-10.9375 3.12497,-3.124689 6.83591,-4.687188 11.13281,-4.6875 4.29684,3.12e-4 7.94267,1.562811 10.9375,4.6875 3.12495,2.995096 4.68745,6.640926 4.6875,10.9375 l 0,106.44531 c 19.53118,-18.88 42.96866,-28.32009 70.3125,-28.32031 27.99465,2.2e-4 51.88785,9.96115 71.67969,29.88281 19.92166,19.79184 29.88281,43.68504 29.88281,71.67969 l 0,15.21875 c -8.0707,-0.99303 -25.67861,-6.99331 -31.17893,-12.74936 l -0.0711,-2.46939 c 0,-19.40091 -6.90122,-35.93735 -20.70313,-49.60938 -13.67202,-13.8019 -30.20846,-20.70293 -49.60937,-20.70312 -19.40114,1.9e-4 -36.00269,6.90122 -49.80469,20.70312 -13.67193,13.67203 -20.50786,30.20847 -20.50781,49.60938 l 0,101.5625 c -5e-5,4.29689 -1.56255,8.00782 -4.6875,11.13281 -2.99483,2.9948 -6.64066,4.49219 -10.9375,4.49219 -4.2969,0 -8.00784,-1.49739 -11.13281,-4.49219 -2.99481,-3.12499 -4.49221,-6.83592 -4.49219,-11.13281 l 0,-281.25"
         id="path4046"
         inkscape:connector-curvature="0"
         sodipodi:nodetypes="ccccccccccccccsscsscsc"
         style="fill:#d39e00;fill-opacity:1;stroke:none" />
    </g>
    <text
       sodipodi:linespacing="125%"
       id="text4035"
       y="520.6488"
       x="383.01935"
       style="font-size:900px;font-style:normal;font-variant:normal;font-weight:normal;font-stretch:normal;text-align:start;line-height:125%;letter-spacing:0px;word-spacing:0px;writing-mode:lr-tb;text-anchor:start;fill:#000000;fill-opacity:1;stroke:none;font-family:STHeiti;-inkscape-font-specification:STHeiti"
       xml:space="preserve"><tspan
         y="520.6488"
         x="383.01935"
         id="tspan4037"
         sodipodi:role="line" /></text>
    <text
       sodipodi:linespacing="125%"
       id="text4039"
       y="529.13403"
       x="368.8772"
       style="font-size:900px;font-style:normal;font-variant:normal;font-weight:normal;font-stretch:normal;text-align:start;line-height:125%;letter-spacing:0px;word-spacing:0px;writing-mode:lr-tb;text-anchor:start;fill:#000000;fill-opacity:1;stroke:none;font-family:STHeiti;-inkscape-font-specification:STHeiti"
       xml:space="preserve"><tspan
         y="529.13403"
         x="368.8772"
         id="tspan4041"
         sodipodi:role="line" /></text>
  </g>
  <g
     inkscape:groupmode="layer"
     id="layer13"
     inkscape:label="dehors"
     style="display:inline"
     transform="translate(0,-50)">
    <g
       transform="translate(1292.8427,-149.51472)"
       style="font-size:400px;font-style:normal;font-variant:normal;font-weight:normal;font-stretch:normal;text-align:start;line-height:125%;letter-spacing:0.01px;word-spacing:0px;writing-mode:lr-tb;text-anchor:start;fill:#d39e00;fill-opacity:1;stroke:none;font-family:Comfortaa;-inkscape-font-specification:Comfortaa"
       id="flowRoot5569">
      <path
         d="m 324.75,1308.1719 c -2e-4,-21.6144 -7.61738,-40.0389 -22.85156,-55.2734 -15.23454,-15.2342 -33.659,-22.8514 -55.27344,-22.8516 -21.61469,2e-4 -40.03915,7.6174 -55.27344,22.8516 -15.23443,15.2345 -22.85161,33.659 -22.85156,55.2734 -5e-5,21.6147 7.61713,40.0391 22.85156,55.2734 15.23429,15.2345 33.65875,22.8516 55.27344,22.8516 21.61444,0 40.0389,-7.6171 55.27344,-22.8516 15.23418,-15.2343 22.85136,-33.6587 22.85156,-55.2734 m 0,-187.8906 c -2e-4,-4.2966 1.49719,-7.9424 4.49219,-10.9375 3.12479,-3.1247 6.83572,-4.6872 11.13281,-4.6875 4.29665,3e-4 7.94248,1.5628 10.9375,4.6875 3.12477,2.9951 4.68727,6.6409 4.6875,10.9375 l 0,187.8906 c -2.3e-4,30.2084 -10.67731,55.9896 -32.03125,77.3438 -21.35435,21.3541 -47.13557,32.0312 -77.34375,32.0312 -30.20843,0 -55.98965,-10.6771 -77.34375,-32.0312 -21.35419,-21.3542 -32.03127,-47.1354 -32.03125,-77.3438 -2e-5,-30.2082 10.67706,-55.9894 32.03125,-77.3437 21.3541,-21.354 47.13532,-32.0311 77.34375,-32.0313 30.20818,2e-4 55.9894,10.6773 77.34375,32.0313 0.26021,0.2606 0.52063,0.521 0.78125,0.7812 l 0,-111.3281"
         style="letter-spacing:0px;fill:#08082d;fill-opacity:1"
         id="path5344" />
      <path
         d="m 573.38281,1292.5469 c -2.86478,-14.9738 -10.02623,-28.1899 -21.48437,-39.6484 -15.23454,-15.2342 -33.659,-22.8514 -55.27344,-22.8516 -21.61469,2e-4 -40.03915,7.6174 -55.27344,22.8516 -11.45839,11.4585 -18.61984,24.6746 -21.48437,39.6484 l 153.51562,0 m -16.60156,71.875 c 4.29669,10e-5 7.94252,1.5626 10.9375,4.6875 3.1248,2.9948 4.6873,6.6407 4.6875,10.9375 -2e-4,4.2969 -1.4976,8.0079 -4.49219,11.1328 -20.18247,17.5782 -43.94546,26.3672 -71.28906,26.3672 -30.20843,0 -55.98965,-10.6771 -77.34375,-32.0312 -21.35419,-21.3542 -32.03127,-47.1354 -32.03125,-77.3438 -2e-5,-30.2082 10.67706,-55.9894 32.03125,-77.3437 21.3541,-21.354 47.13532,-32.0311 77.34375,-32.0313 30.20818,2e-4 55.9894,10.6773 77.34375,32.0313 21.35394,21.3543 32.03102,47.1355 32.03125,77.3437 -2.3e-4,4.297 -1.56273,8.0079 -4.6875,11.1328 -2.99502,2.9949 -6.64085,4.4923 -10.9375,4.4922 l -170.50781,0 c 2.86453,14.974 10.02598,28.1902 21.48437,39.6484 15.23429,15.2345 33.65875,22.8516 55.27344,22.8516 19.53111,0 36.32796,-6.1848 50.39062,-18.5547 2.86441,-2.2135 6.11962,-3.3202 9.76563,-3.3203"
         style="letter-spacing:0px;fill:#08082d;fill-opacity:1"
         id="path5346" />
      <path
         d="m 637.25,1120.6719 c -2e-5,-4.2966 1.49738,-7.9424 4.49219,-10.9375 3.12497,-3.1247 6.83591,-4.6872 11.13281,-4.6875 4.29684,3e-4 7.94267,1.5628 10.9375,4.6875 3.12495,2.9951 4.68745,6.6409 4.6875,10.9375 l 0,106.4453 c 19.53118,-18.88 42.96866,-28.3201 70.3125,-28.3203 27.99465,2e-4 51.88785,9.9612 71.67969,29.8828 19.92166,19.7919 29.88259,43.6851 29.88281,71.6797 l 0,101.5625 c -2.2e-4,4.2969 -1.56272,8.0078 -4.6875,11.1328 -2.995,2.9948 -6.64083,4.4922 -10.9375,4.4922 -4.29707,0 -8.00801,-1.4974 -11.13281,-4.4922 -2.99498,-3.125 -4.49238,-6.8359 -4.49219,-11.1328 l 0,-101.5625 c -1.9e-4,-19.4009 -6.90122,-35.9373 -20.70313,-49.6094 -13.67202,-13.8019 -30.20846,-20.7029 -49.60937,-20.7031 -19.40114,2e-4 -36.00269,6.9012 -49.80469,20.7031 -13.67193,13.6721 -20.50786,30.2085 -20.50781,49.6094 l 0,101.5625 c -5e-5,4.2969 -1.56255,8.0078 -4.6875,11.1328 -2.99483,2.9948 -6.64066,4.4922 -10.9375,4.4922 -4.2969,0 -8.00784,-1.4974 -11.13281,-4.4922 -2.99481,-3.125 -4.49221,-6.8359 -4.49219,-11.1328 l 0,-281.25"
         style="letter-spacing:0px;fill:#08082d;fill-opacity:1"
         id="path5348" />
      <path
         d="m 1090.375,1308.1719 c -2e-4,30.2084 -10.6773,55.9896 -32.0312,77.3438 -21.3544,21.3541 -47.1356,32.0312 -77.3438,32.0312 -30.20843,0 -55.98965,-10.6771 -77.34375,-32.0312 -21.35419,-21.3542 -32.03127,-47.1354 -32.03125,-77.3438 -2e-5,-30.2082 10.67706,-55.9894 32.03125,-77.3437 21.3541,-21.354 47.13532,-32.0311 77.34375,-32.0313 30.2082,2e-4 55.9894,10.6773 77.3438,32.0313 21.3539,21.3543 32.031,47.1355 32.0312,77.3437 M 981,1230.0469 c -21.61469,2e-4 -40.03915,7.6174 -55.27344,22.8516 -15.23443,15.2345 -22.85161,33.659 -22.85156,55.2734 -5e-5,21.6147 7.61713,40.0391 22.85156,55.2734 15.23429,15.2345 33.65875,22.8516 55.27344,22.8516 21.6144,0 40.0389,-7.6171 55.2734,-22.8516 15.2342,-15.2343 22.8514,-33.6587 22.8516,-55.2734 -2e-4,-21.6144 -7.6174,-40.0389 -22.8516,-55.2734 -15.2345,-15.2342 -33.659,-22.8514 -55.2734,-22.8516"
         style="letter-spacing:0px;fill:#08082d;fill-opacity:1"
         id="path5350" />
      <path
         d="m 1121.625,1214.4219 c 0,-4.2967 1.4974,-7.9425 4.4922,-10.9375 3.125,-3.1248 6.8359,-4.6873 11.1328,-4.6875 4.2968,2e-4 7.9427,1.5627 10.9375,4.6875 3.125,2.995 4.6875,6.6408 4.6875,10.9375 l 0,17.1875 c 21.8749,-21.8748 47.9166,-32.8123 78.125,-32.8125 15.2342,2e-4 29.2316,2.6044 41.9922,7.8125 2.3436,0.9117 4.492,2.2789 6.4453,4.1016 2.9946,3.1252 4.492,6.8361 4.4922,11.1328 -2e-4,4.2971 -1.5627,8.008 -4.6875,11.1328 -2.995,2.995 -6.6408,4.4924 -10.9375,4.4922 -2.4741,2e-4 -4.7528,-0.5207 -6.8359,-1.5625 -9.245,-3.9061 -19.4012,-5.8592 -30.4688,-5.8594 -21.6147,2e-4 -40.0391,7.6174 -55.2734,22.8516 -15.2345,15.2345 -22.8516,33.659 -22.8516,55.2734 l 0,93.75 c 0,4.2969 -1.5625,8.0078 -4.6875,11.1328 -2.9948,2.9948 -6.6407,4.4922 -10.9375,4.4922 -4.2969,0 -8.0078,-1.4974 -11.1328,-4.4922 -2.9948,-3.125 -4.4922,-6.8359 -4.4922,-11.1328 l 0,-187.5"
         style="letter-spacing:0px;fill:#08082d;fill-opacity:1"
         id="path5352" />
      <path
         d="m 1347.7969,1308.1719 c -11.849,-4.427 -20.1172,-9.0494 -24.8047,-13.8672 -9.2448,-9.1144 -13.8672,-20.117 -13.8672,-33.0078 0,-12.8904 4.8177,-24.1535 14.4531,-33.7891 18.75,-19.1404 43.2291,-28.7107 73.4375,-28.7109 32.6822,2e-4 60.6769,13.0862 83.9844,39.2578 2.0831,2.4742 3.0597,5.534 2.9297,9.1797 -2e-4,4.2971 -1.5627,8.008 -4.6875,11.1328 -2.995,2.995 -6.6408,4.4924 -10.9375,4.4922 -4.2971,2e-4 -7.7476,-1.367 -10.3516,-4.1016 -2.6043,-2.7342 -4.4923,-4.6873 -5.664,-5.8593 -15.2346,-15.2342 -33.659,-22.8514 -55.2735,-22.8516 -21.6146,2e-4 -38.8672,6.771 -51.7578,20.3125 -3.125,3.7762 -4.6875,8.2684 -4.6875,13.4766 0.3906,6.1199 3.5807,10.2866 9.5703,12.5 l 96.0938,31.8359 c 11.8488,4.4272 20.117,9.0496 24.8047,13.8672 9.2446,9.1147 13.867,20.1173 13.8672,33.0078 -2e-4,12.8907 -4.8179,24.1537 -14.4532,33.7891 -18.7501,19.1406 -43.2293,28.7109 -73.4375,28.7109 -32.8125,0 -60.8073,-13.0859 -83.9843,-39.2578 -1.9532,-2.7343 -2.9298,-5.7942 -2.9297,-9.1797 -10e-5,-4.2968 1.4973,-7.9426 4.4922,-10.9375 3.1249,-3.1249 6.8359,-4.6874 11.1328,-4.6875 4.2968,10e-5 7.7473,1.3673 10.3515,4.1016 2.6041,2.7344 4.4922,4.6875 5.6641,5.8593 15.2343,15.2345 33.6588,22.8516 55.2734,22.8516 21.6145,0 38.8671,-6.7708 51.7578,-20.3125 3.1249,-3.776 4.6874,-8.2682 4.6875,-13.4766 -0.3907,-6.1197 -3.5808,-10.2863 -9.5703,-12.5 l -96.0937,-31.8359"
         style="letter-spacing:0px;fill:#08082d;fill-opacity:1"
         id="path5354" />
    </g>
  </g>
  <g
     inkscape:groupmode="layer"
     id="layer20"
     inkscape:label="borage svg"
     style="display:inline">
    <g
       id="g4005"
       transform="translate(250.00004,44.000091)">
      <g
         id="g4541"
         transform="translate(0,6)">
        <path
           d="m 2133.0913,466.47628 c 0,0 -11.6089,-3.09278 -6.8403,-4.64161 3.4201,-9.28321 26.3839,-1.71006 26.3839,-1.71006 24.4734,13.55837 81.233,46.90465 88.6791,45.43888 0.2882,3.44456 44.3882,2.30126 44.2172,0.24429 -4.4753,1.18239 -69.0523,54.96623 -53.0949,58.87495 3.596,6.8256 34.6117,-1.72961 31.9245,-6.84026 0,0 29.4764,-13.43607 29.4764,-13.43607 -7.6513,0.044 -11.1545,60.66807 4.07,70.11252 22.5045,11.8874 28.6656,26.05651 26.3839,34.85113 -4.2312,23.12986 -16.6121,61.56236 -26.7894,70.92863 23.5354,-11.97046 3.9918,-18.81072 103.0094,-92.74906 9.806,-1.36317 33.5857,-51.75147 27.4441,-50.89643 4.368,11.51118 25.9784,48.28736 38.6817,60.01352 26.5744,12.62028 11.0715,-26.05651 5.8631,-40.71421 0,0 -13.0307,-39.08721 -13.0307,-39.08721 -0.034,0.14169 17.5892,13.03069 29.3154,19.21625 15.6349,3.25889 28.5824,4.96896 28.5824,4.96896 68.1583,38.35432 83.3046,31.02547 83.3046,31.02547 12.8646,-2.77031 16.8563,-17.58924 16.8563,-17.58924 0.2443,-5.3745 -5.6188,-9.93304 -5.6188,-9.93304 0.9772,8.13991 -0.6498,14.00299 -0.6498,14.00299 -9.4493,0 -29.6427,-34.20131 -32.9016,-46.90449 -7.4901,-18.23907 -4.2312,-38.11003 -25.8123,-61.47929 -8.0617,-11.80922 -49.4305,-19.94914 -49.4305,-19.94914 0,0 94.2978,-3.83054 90.8776,-19.5436 1.7932,-10.0161 -89.8173,-16.20653 -89.8173,-16.20653 0,0 26.9553,-12.1317 35.1783,-23.45233 4.5097,-6.63994 10.9347,-23.9116 19.7879,-36.23873 17.9166,-15.95735 24.493,-25.63632 33.7127,-37.04979 24.9181,-31.35266 4.7247,-54.80499 4.7247,-54.80499 0,0 1.5439,15.63489 -15.6349,22.15268 -17.3449,8.13991 -44.6278,9.7718 -77.0358,17.99461 -12.8646,2.19865 -24.1852,10.99328 -24.1852,10.99328 0,0 17.5061,-31.26961 9.0389,-61.23484 -20.8482,4.23119 -64.7382,81.02274 -64.7382,81.02274 0,0 6.2686,-25.00116 0.5716,-32.16373 -4.8859,-22.8025 -17.428,-32.33001 -17.428,-32.33001 0,0 -7.0015,-12.94763 -51.6293,-35.09542 -12.7033,-17.26678 -7.4901,-37.13285 -25.3236,-52.8508 -19.9491,-17.18371 -36.2387,-2.84848 -36.2387,-2.84848 0,0 -0.6499,2.5309 5.2132,3.90872 3.2638,0.76709 -3.8012,-7.42168 0,-4.56343 17.9166,-0.64982 23.0517,26.53533 20.5208,44.30047 -21.1706,59.76923 -16.2847,106.51248 -16.2847,106.51248 0,0 -44.3003,-30.94225 -65.7983,-27.36088 -3.9087,17.58908 47.1488,64.49373 47.1488,64.49373 1.7101,-2.55533 -48.126,-5.1302 -66.6924,5.37449 4.0309,-1.0407 -23.4279,31.00593 -32.0026,33.22413 0.9625,1.20193 -6.3517,3.40059 -39.0872,9.52751 -16.8857,5.16439 -16.446,10.4998 -19.0551,11.72616 -2.311,-3.78658 -6.1904,14.08117 -5.1302,17.10065 1.4658,11.97046 9.2833,3.66443 9.2833,3.66443 z m 108.467,-98.9395"
           id="Borage petals"
           inkscape:connector-curvature="0"
           style="fill:#08082d;fill-opacity:1;stroke:none;stroke-width:0.48858979000000002;stroke-opacity:1" />
        <path
           d="m 2282.59,506.93968 c 0,0 61.5875,-20.1968 58.0969,-18.95008 -10.9712,9.475 -27.9263,25.18359 -49.3698,58.09682 0,0 -51.3645,35.65597 -63.8318,21.19418 -11.4694,-11.46977 55.1047,-60.34092 55.1047,-60.34092 z m 0.4987,-122.92578 c 0,0 -46.3775,-40.89219 -48.871,-65.5771 21.1939,-6.23359 67.821,26.92898 69.3171,28.42504 3.9894,11.96845 24.685,35.40666 41.1416,60.83944 -40.3935,-12.96583 -61.5877,-23.68738 -61.5877,-23.68738 z m 138.8838,135.89156 c -3.9894,4.48816 7.4802,60.34089 7.4802,60.34089 0,0 31.417,72.05984 51.6139,63.33291 14.4618,-1.49613 -14.462,-66.82367 -18.7008,-83.77899 -4.9867,-6.48293 -31.4168,-39.89481 -40.3933,-39.89481 z m 43.3855,-66.32515 c -1.9948,5.48554 39.3964,16.70592 39.3964,16.70592 0,0 97.2432,-1.74536 95.7474,-19.19934 2.4933,-12.46713 -92.7556,-17.20463 -92.7556,-17.20463 0,0 -44.8816,15.20989 -42.3882,19.69805 z m -42.388,-62.83433 c 9.4747,1.49604 38.1492,-43.13611 60.5901,-59.59272 0,0 18.7006,-26.43031 9.2255,-62.58499 -23.4381,2.74277 -66.8236,83.52977 -66.8236,83.52977 0,0 -6.4829,25.68229 -2.992,38.64794 z"
           id="leaves"
           inkscape:connector-curvature="0"
           style="fill:#d39e00;fill-opacity:1;stroke:#d39e00;stroke-width:0.49868488000000000;stroke-opacity:1" />
      </g>
    </g>
  </g>
</svg>
