<?xml version="1.0" encoding="UTF-8" standalone="no"?>
<!-- Created with Inkscape (http://www.inkscape.org/) -->

<svg
   xmlns:dc="http://purl.org/dc/elements/1.1/"
   xmlns:cc="http://creativecommons.org/ns#"
   xmlns:rdf="http://www.w3.org/1999/02/22-rdf-syntax-ns#"
   xmlns:svg="http://www.w3.org/2000/svg"
   xmlns="http://www.w3.org/2000/svg"
   xmlns:xlink="http://www.w3.org/1999/xlink"
   xmlns:sodipodi="http://sodipodi.sourceforge.net/DTD/sodipodi-0.dtd"
   xmlns:inkscape="http://www.inkscape.org/namespaces/inkscape"
   width="3200"
   height="1810"
   id="svg2985"
   version="1.1"
   inkscape:version="0.48.5 r10040"
   sodipodi:docname="dhd-logo-plainsvg.svg"
   inkscape:export-filename="/Users/willsabido/Google Drive/Web iSabi/Clients/Des Heures Dehors/draft images/logo/dhd-logo-bluestemcalyx.png"
   inkscape:export-xdpi="22.5"
   inkscape:export-ydpi="22.5">
  <title
     id="title4115">Des Heures Dehors logo petit</title>
  <defs
     id="defs2987">
    <color-profile
       name="sRGB-IEC61966-2.1"
       xlink:href="/System/Library/ColorSync/Profiles/sRGB Profile.icc"
       id="color-profile4113" />
  </defs>
  <sodipodi:namedview
     inkscape:document-units="mm"
     pagecolor="#ffffff"
     bordercolor="#666666"
     borderopacity="1.0"
     inkscape:pageopacity="0.0"
     inkscape:pageshadow="2"
     inkscape:zoom="0.25"
     inkscape:cx="1516.7756"
     inkscape:cy="1345.0251"
     inkscape:current-layer="layer20"
     id="namedview2989"
     showgrid="false"
     inkscape:window-width="1920"
     inkscape:window-height="1031"
     inkscape:window-x="0"
     inkscape:window-y="0"
     inkscape:window-maximized="1"
     units="px"
     fit-margin-left="0"
     inkscape:snap-grids="false"
     inkscape:snap-to-guides="false"
     showborder="false"
     inkscape:showpageshadow="false" />
  <metadata
     id="metadata2991">
    <rdf:RDF>
      <cc:Work
         rdf:about="">
        <dc:format>image/svg+xml</dc:format>
        <dc:type
           rdf:resource="http://purl.org/dc/dcmitype/StillImage" />
        <dc:title>Des Heures Dehors logo petit</dc:title>
        <cc:license
           rdf:resource="" />
        <dc:contributor>
          <cc:Agent>
            <dc:title>Daniel &amp; Helene Deniaud-Powell (Des Heures Dehors), Will Sabido (Webi Sabi)</dc:title>
          </cc:Agent>
        </dc:contributor>
        <dc:description>Une fleur Borage dans bleu et jaune.</dc:description>
        <dc:language>fr-FR</dc:language>
        <dc:subject>
          <rdf:Bag>
            <rdf:li>Borage</rdf:li>
            <rdf:li>Des Heures Dehors</rdf:li>
            <rdf:li>Logo</rdf:li>
          </rdf:Bag>
        </dc:subject>
        <dc:rights>
          <cc:Agent>
            <dc:title>Daniel &amp; Helene Deniaud-Powell, Des Heures Dehors</dc:title>
          </cc:Agent>
        </dc:rights>
        <dc:creator>
          <cc:Agent>
            <dc:title>Will Sabido, Webi Sabi</dc:title>
          </cc:Agent>
        </dc:creator>
        <dc:date>5th March 2015</dc:date>
      </cc:Work>
    </rdf:RDF>
  </metadata>
  <g
     inkscape:groupmode="layer"
     id="layer20"
     inkscape:label="borage svg"
     style="display:inline"
     transform="translate(0,60)">
    <g
       transform="matrix(1.6182401,0,0,1.6182401,-1380.1645,-356.58641)"
       id="g4499"
       style="fill:#d39e00;fill-opacity:1;stroke:none" />
    <path
       d="m 2829.3179,668.56753 c 0,0 -39.1494,8.84023 -50.5154,21.46912 0,0 -14.5233,13.89177 -22.1006,39.781 -1.8944,7.57727 3.7886,17.68046 3.7886,39.78103 -4.42,41.04388 -10.103,70.72175 -6.9458,148.38921 0,0 7.5773,39.14959 19.5748,48.62119 0,0 1.8943,8.84025 9.4716,6.94596 0,0 -3.1572,-16.41756 -4.4201,-36.62383 0,0 8.8403,-99.76802 17.6803,-208.37646 0,0 3.7886,-18.94333 22.732,-35.99232 0,0 13.8917,-5.68301 13.8917,-5.68301 0,0 -5.0516,7.57734 -3.7886,16.41755 0,0 -28.4151,192.5906 -31.5723,245.00026 0,0 -1.2628,37.88665 -1.2628,37.88665 0,0 27.7836,-30.30934 39.1496,-61.88151 16.4175,-39.78081 44.201,-147.12639 63.1443,-196.37905 1.8944,-13.89179 2.5259,-15.15467 -3.7886,-42.30679 0,0 18.3119,16.41756 22.1006,35.99234 0,0 -1.8944,37.25526 -15.1548,51.14705 0,0 -17.0489,35.36087 -38.5181,108.6084 0,0 -1.2628,12.62884 -3.7886,22.73179 0,0 -12.6289,29.67786 -22.732,44.8326 0,0 -10.1031,20.20614 -24.6263,31.57216 13.2603,-0.63147 8.8402,-1.26282 20.2062,-5.68301 0,0 16.4176,-11.36602 22.1006,-29.0464 0,0 53.6727,-128.18307 63.7758,-142.07485 0,0 10.1032,-23.99486 12.629,-54.3042 0,0 3.1572,-17.04899 -1.8945,-33.46655 -6.9458,-17.04899 -35.3608,-35.99232 -36.6237,-49.8841 -8.2087,-5.68301 -11.366,-62.513 -47.3583,-9.47167 -1.2629,5.05156 -6.3145,9.47167 -15.1546,11.99744 z"
       id="Unnamed"
       inkscape:connector-curvature="0"
       style="display:inline;fill:#08082d;fill-opacity:1;stroke:none" />
    <path
       style="display:inline;fill:#08082d;fill-opacity:1;stroke:none"
       inkscape:connector-curvature="0"
       id="path4478"
       d="m 2905.5237,1043.805 c 0,0 -32.8656,2.7159 -43.5577,11.6921 0,0 -13.4054,9.6424 -22.5313,29.8409 -2.408,5.9488 -10.3167,47.4139 -12.844,65.3962 -8.2898,32.8905 -4.9305,23.7939 -11.243,87.3501 0,0 -4.4614,27.8016 4.2174,36.8799 0,0 6.6803,12.3295 13.0624,11.6547 0,0 -0.6915,-13.7192 0.5915,-30.3046 0,0 18.6019,-80.1668 38.2143,-167.527 0,0 5.249,-14.9801 22.6124,-26.6861 l 11.9528,-3.0357 c 0,0 -20.3515,39.4124 -20.3349,46.7498 0,0 -29.7689,119.6303 -38.3311,161.9133 l -5.3601,30.6823 c 0,0 26.0723,-21.4845 38.9308,-45.8738 17.9077,-30.4908 39.2594,-74.0678 60.3053,-111.9765 3.1299,-11.0866 21.6666,-43.0643 4.8483,-72.837 12.1762,9.4194 19.9801,24.485 20.8242,34.4221 0,0 0.7524,21.4958 -25.7706,59.2649 0,0 -17.3006,22.2099 -32.6905,59.3664 0,0 -13.5415,22.4309 -16.7519,30.3626 0,0 -2.5997,10.4039 -12.5532,21.5794 0,0 -10.8389,16.8232 -23.9555,24.4106 8.0941,2.5401 13.7947,-0.017 19.8584,-3.8509 0,0 23.2681,-18.4407 29.9139,-32.1765 0,0 46.9525,-76.9434 59.5291,-97.2387 0,0 10.0419,-16.2159 15.5631,-40.5887 0,0 6.6709,-24.581 1.9781,-36.9792 -3.7021,-14.6666 -13.3975,-28.211 -25.3253,-37.3974 -10.4798,-8.0711 -2.0993,-52.1643 -37.4506,-13.1223 -1.6051,3.9658 -6.2209,6.9848 -13.7026,8.0291 z"
       sodipodi:nodetypes="ccccccccccccccccccccccccccccaccc" />
    <path
       d="m 2706.2444,1387.5306 c 0,0 14.0807,29.8205 11.6531,43.5681 -4.5971,30.5096 -23.7032,37.887 -42.2511,52.1041 -24.339,23.6245 -40.6799,42.3172 -92.5649,79.5623 -9.9651,6.5849 -43.143,22.2654 -50.6721,9.3026 0,0 12.2271,-6.2608 25.949,-15.6647 8.3342,-5.7117 60.1254,-56.1932 125.9755,-116.858 0,0 17.4885,-12.7714 11.8045,-32.926 l -3.3474,-11.8693 c 0,0 -2.3509,7.104 -8.7136,10.7581 -4.0017,2.2982 -110.324,115.8232 -142.661,144.3797 l -23.8916,19.9832 c 0,0 5.57,-33.3216 20.2625,-56.6519 17.4521,-30.754 55.0376,-83.7303 79.1183,-119.7874 6.398,-9.5801 22.2331,-23.2174 43.0075,-32.8643 0,0 -19.893,-3.5513 -34.4838,3.8979 -10.3027,5.2601 -16.9623,15.676 -23.9283,24.8143 -31.9818,55.3959 -65.1117,91.6974 -80.2976,135.5791 0,0 -7.972,16.7633 -7.9846,31.9163 -6.2991,-8.9051 -3.6538,-6.3628 -6.5421,-15.9579 -1.657,-5.5049 -4.8595,-9.8568 -0.2007,-24.6543 7.2404,-33.8742 59.4646,-105.6974 67.5562,-117.5131 0,0 10.4253,-18.6797 28.7722,-35.6474 0,0 9.4416,-10.6688 22.6267,-15.703 14.5527,-4.127 34.8473,-7.1758 50.8259,-1.5215 12.4699,4.4129 46.2254,-24.2641 30.0897,25.872 -2.632,3.373 -2.9388,8.88 -0.102,15.8814 z"
       id="path4480"
       inkscape:connector-curvature="0"
       style="display:inline;fill:#08082d;fill-opacity:1;stroke:none"
       sodipodi:nodetypes="cccccscscscccscscccsccccaccc" />
    <path
       sodipodi:type="spiral"
       style="display:inline;fill:none;stroke:#000000;stroke-width:7.94898605000000025;stroke-linecap:butt;stroke-linejoin:miter;stroke-miterlimit:4;stroke-opacity:1;stroke-dasharray:none"
       id="path4441"
       sodipodi:cx="2986.8191"
       sodipodi:cy="1091.5795"
       sodipodi:expansion="5"
       sodipodi:revolution="1"
       sodipodi:radius="144.74979"
       sodipodi:argument="-6.0465002"
       sodipodi:t0="0.082999997"
       d="m 2986.8195,1091.5799 c 0.1221,0.1424 -0.3804,0.4177 -0.408,0.4299 -3.5881,1.5864 -6.2627,-4.8939 -6.671,-7.1338 -4.3602,-23.9174 29.4172,-35.3729 46.998,-35.4496 45.6327,-0.1988 82.7463,37.3021 100.7948,76.0942"
       transform="matrix(1.2880172,0.46879991,-0.46879991,1.2880172,-394.10093,-1754.6996)" />
    <path
       sodipodi:type="spiral"
       style="display:inline;fill:none;stroke:#000000;stroke-width:11.26048469999999924;stroke-linecap:butt;stroke-linejoin:miter;stroke-miterlimit:4;stroke-opacity:1;stroke-dasharray:none"
       id="path4443"
       sodipodi:cx="2803.6785"
       sodipodi:cy="1345.4308"
       sodipodi:expansion="2"
       sodipodi:revolution="1"
       sodipodi:radius="198.03661"
       sodipodi:argument="-5.7348051"
       sodipodi:t0="0.59531379"
       d="m 2774.8335,1281.4484 c 39.5846,-51.4022 117.4408,-34.7241 157.8493,5.8237 41.6762,41.8198 53.7661,105.1709 39.9942,161.3963"
       transform="matrix(0.96758804,0,0,0.96758804,10.928534,114.60663)" />
    <path
       sodipodi:type="spiral"
       style="display:inline;fill:none;stroke:#08082d;stroke-width:10.62992095999999975;stroke-linecap:butt;stroke-linejoin:miter;stroke-miterlimit:4;stroke-opacity:1;stroke-dasharray:none"
       id="path4447"
       sodipodi:cx="2924.5938"
       sodipodi:cy="791.76624"
       sodipodi:expansion="10"
       sodipodi:revolution="1.0029672"
       sodipodi:radius="303.29523"
       sodipodi:argument="-5.608882"
       sodipodi:t0="0.082754418"
       d="m 2924.5938,791.76624 c 5e-4,0.002 -0,0.002 -0,0.002 -0.3949,0.0673 -0.4831,-1.17914 -0.4846,-1.24462 -0.4058,-17.00455 36.44,-16.97877 44.5619,-16.10481 99.1214,10.66619 162.411,128.80789 189.2725,211.09484"
       transform="matrix(1.2299821,0,0,1.2299821,-725.49165,-328.81208)" />
    <path
       transform="translate(-34.443442,192)"
       style="display:inline;fill:#08082d;fill-opacity:1;stroke:#08082d;stroke-width:0.35787401000000002;stroke-linecap:butt;stroke-linejoin:miter;stroke-miterlimit:4;stroke-opacity:1"
       d="m 1091.4906,240.18667 c 0.6901,642.28049 457.4113,1253.05363 1122.3547,1305.65593 379.4775,30.0196 772.1757,-152.6713 941.3365,-503.9773 52.8414,-109.7387 79.3755,-234.73879 72.2552,-356.58565 C 3221.1552,577.78157 3189.7408,475.9749 3130.9737,385.60133 3028.576,228.13144 2802.1509,105.12901 2622.463,215.47453 l -11.358,15.78188 c 170.3658,-104.6211 385.0444,11.99998 482.1299,161.30044 55.7183,85.68506 85.5031,182.21011 91.4591,284.13132 6.751,115.52559 -18.4065,234.04086 -68.5065,338.08653 -160.3847,333.0808 -532.7101,506.2941 -892.5009,477.8321 C 1624.2674,1445.1884 1196.1806,914.1201 1161.9237,333.63365 z"
       id="path4408"
       inkscape:connector-curvature="0"
       sodipodi:nodetypes="cssssccsssscc" />
    <g
       transform="matrix(0.99999709,0,0,0.99999709,427.44338,-101.8981)"
       style="display:inline;font-size:900px;font-style:normal;font-variant:normal;font-weight:normal;font-stretch:normal;text-align:start;line-height:125%;letter-spacing:0px;word-spacing:0px;writing-mode:lr-tb;text-anchor:start;fill:#08082d;fill-opacity:1;stroke:none;font-family:STHeiti;-inkscape-font-specification:STHeiti"
       id="flowRoot4002">
      <path
         d="m 243.21875,220.15242 c -4e-5,-9.66729 3.3691,-17.87041 10.10742,-24.60937 7.0312,-7.03055 15.3808,-10.54618 25.04883,-10.54688 9.66789,7e-4 17.87101,3.51633 24.60937,10.54688 7.03115,6.73896 10.54677,14.94208 10.54688,24.60937 l 0,239.50195 c 43.94516,-42.47999 96.67949,-63.72021 158.20312,-63.7207 62.98796,4.9e-4 116.74767,22.41258 161.2793,67.23633 44.82375,44.53163 67.23633,98.29134 67.23633,161.2793 0.22942,12.06635 -1.84364,26.76466 -2.62936,37.79105 -0.86717,12.16924 -32.52689,7.88082 -32.52689,7.88082 0,0 -32.31202,-23.4868 -32.32112,-45.67187 0,-43.65204 -18.36288,-80.85903 -49.41716,-111.6211 -30.76206,-31.05428 -67.96906,-46.58161 -111.6211,-46.58203 -43.65256,4.2e-4 -81.00604,15.52775 -112.06054,46.58203 -30.76184,30.76207 -46.14269,67.96906 -46.14258,111.6211 l 0,228.51562 c -1.1e-4,9.66799 -3.51573,18.0176 -10.54688,25.04883 -6.73836,6.73828 -14.94148,10.10742 -24.60937,10.10742 -9.66803,0 -18.01763,-3.36914 -25.04883,-10.10742 -6.73832,-7.03123 -10.10746,-15.38084 -10.10742,-25.04883 l 0,-632.8125"
         style="line-height:125%;letter-spacing:100px;fill:#08082d;fill-opacity:1;font-family:Comfortaa;-inkscape-font-specification:Comfortaa"
         id="path3931"
         inkscape:connector-curvature="0"
         sodipodi:nodetypes="cccccccccsccccsscsscsc" />
    </g>
    <g
       transform="translate(-237.00465,-101.9007)"
       style="font-size:900px;font-style:normal;font-variant:normal;font-weight:normal;font-stretch:normal;text-align:start;line-height:125%;letter-spacing:67px;word-spacing:0px;writing-mode:lr-tb;text-anchor:start;fill:#d39e00;fill-opacity:1;stroke:none;display:inline;font-family:STHeiti;-inkscape-font-specification:STHeiti"
       id="flowRoot3813">
      <path
         d="m 665.09375,642.02742 c -4.6e-4,-48.63252 -17.13911,-90.08755 -51.41602,-124.36523 -34.27771,-34.27694 -75.73275,-51.4156 -124.36523,-51.41602 -48.63305,4.2e-4 -90.08808,17.13908 -124.36523,51.41602 -34.27747,34.27768 -51.41613,75.73271 -51.41602,124.36523 -1.1e-4,48.63301 17.13855,90.08805 51.41602,124.36524 34.27715,34.27743 75.73218,51.41608 124.36523,51.41601 48.63248,7e-5 90.08752,-17.13858 124.36523,-51.41601 34.27691,-34.27719 51.41556,-75.73223 51.41602,-124.36524 m 0,-422.75391 c -4.6e-4,-9.66729 3.36868,-17.8704 10.10742,-24.60937 7.03078,-7.03055 15.38038,-10.54617 25.04883,-10.54688 9.66747,7.1e-4 17.87058,3.51633 24.60937,10.54688 7.03073,6.73897 10.54635,14.94208 10.54688,24.60937 l 0,422.75391 c -5.3e-4,67.96893 -24.02394,125.97668 -72.07031,174.02344 -48.04728,48.0469 -106.05504,72.07031 -174.02344,72.07031 -67.96896,0 -125.97672,-24.02341 -174.02344,-72.07031 -48.04693,-48.04676 -72.07035,-106.05451 -72.07031,-174.02344 -4e-5,-67.96844 24.02338,-125.97619 72.07031,-174.02344 48.04672,-48.0464 106.05448,-72.06982 174.02344,-72.07031 67.9684,4.9e-4 125.97616,24.02391 174.02344,72.07031 0.58548,0.58636 1.17142,1.1723 1.75781,1.75782 l 0,-250.48829"
         style="fill:#d39e00"
         id="path4560" />
      <path
         d="m 1955.9375,642.02742 c -5e-4,-48.63252 -17.1391,-90.08755 -51.416,-124.36523 -34.2777,-34.27694 -75.7328,-51.4156 -124.3652,-51.41602 -48.6331,4.2e-4 -90.0881,17.13908 -124.3653,51.41602 -34.2775,34.27768 -51.4161,75.73271 -51.416,124.36523 -10e-5,48.63301 17.1385,90.08805 51.416,124.36524 34.2772,34.27743 75.7322,51.41608 124.3653,51.41601 48.6324,7e-5 90.0875,-17.13858 124.3652,-51.41601 34.2769,-34.27719 51.4155,-75.73223 51.416,-124.36524 m 0,-422.75391 c -5e-4,-9.66729 3.3687,-17.8704 10.1074,-24.60937 7.0308,-7.03055 15.3804,-10.54617 25.0489,-10.54688 9.6674,7.1e-4 17.8705,3.51633 24.6093,10.54688 7.0308,6.73897 10.5464,14.94208 10.5469,24.60937 l 0,422.75391 c -5e-4,67.96893 -24.0239,125.97668 -72.0703,174.02344 -48.0473,48.0469 -106.055,72.07031 -174.0234,72.07031 -67.969,0 -125.9768,-24.02341 -174.0235,-72.07031 -48.0469,-48.04676 -72.0703,-106.05451 -72.0703,-174.02344 0,-67.96844 24.0234,-125.97619 72.0703,-174.02344 48.0467,-48.0464 106.0545,-72.06982 174.0235,-72.07031 67.9684,4.9e-4 125.9761,24.02391 174.0234,72.07031 0.5855,0.58636 1.1714,1.1723 1.7578,1.75782 l 0,-250.48829"
         style="fill:#d39e00"
         id="path4562" />
    </g>
    <path
       transform="matrix(1.6182401,0,0,1.6182401,-1380.1645,-356.58641)"
       style="display:inline;fill:#d39e00;fill-opacity:1;stroke:none"
       inkscape:connector-curvature="0"
       id="Borage petals"
       d="m 2125.0913,464.47628 c 0,0 -11.6089,-3.09278 -6.8403,-4.64161 3.4201,-9.28321 26.3839,-1.71006 26.3839,-1.71006 24.4734,13.55837 81.233,46.90465 88.6791,45.43888 0.2882,3.44456 44.3882,2.30126 44.2172,0.24429 -4.4753,1.18239 -69.0523,54.96623 -53.0949,58.87495 3.596,6.8256 34.6117,-1.72961 31.9245,-6.84026 0,0 29.4764,-13.43607 29.4764,-13.43607 -7.6513,0.044 -11.1545,60.66807 4.07,70.11252 22.5045,11.8874 28.6656,26.05651 26.3839,34.85113 -4.2312,23.12986 -16.6121,61.56236 -26.7894,70.92863 23.5354,-11.97046 3.9918,-18.81072 103.0094,-92.74906 9.806,-1.36317 33.5857,-51.75147 27.4441,-50.89643 4.368,11.51118 25.9784,48.28736 38.6817,60.01352 26.5744,12.62028 11.0715,-26.05651 5.8631,-40.71421 0,0 -13.0307,-39.08721 -13.0307,-39.08721 -0.034,0.14169 17.5892,13.03069 29.3154,19.21625 15.6349,3.25889 28.5824,4.96896 28.5824,4.96896 68.1583,38.35432 83.3046,31.02547 83.3046,31.02547 12.8646,-2.77031 16.8563,-17.58924 16.8563,-17.58924 0.2443,-5.3745 -5.6188,-9.93304 -5.6188,-9.93304 0.9772,8.13991 -0.6498,14.00299 -0.6498,14.00299 -9.4493,0 -29.6427,-34.20131 -32.9016,-46.90449 -7.4901,-18.23907 -4.2312,-38.11003 -25.8123,-61.47929 -8.0617,-11.80922 -49.4305,-19.94914 -49.4305,-19.94914 0,0 94.2978,-3.83054 90.8776,-19.5436 1.7932,-10.0161 -89.8173,-16.20653 -89.8173,-16.20653 0,0 26.9553,-12.1317 35.1783,-23.45233 4.5097,-6.63994 10.9347,-23.9116 19.7879,-36.23873 17.9166,-15.95735 24.493,-25.63632 33.7127,-37.04979 24.9181,-31.35266 4.7247,-54.80499 4.7247,-54.80499 0,0 1.5439,15.63489 -15.6349,22.15268 -17.3449,8.13991 -44.6278,9.7718 -77.0358,17.99461 -12.8646,2.19865 -24.1852,10.99328 -24.1852,10.99328 0,0 17.5061,-31.26961 9.0389,-61.23484 -20.8482,4.23119 -64.7382,81.02274 -64.7382,81.02274 0,0 6.2686,-25.00116 0.5716,-32.16373 -4.8859,-22.8025 -17.428,-32.33001 -17.428,-32.33001 0,0 -7.0015,-12.94763 -51.6293,-35.09542 -12.7033,-17.26678 -7.4901,-37.13285 -25.3236,-52.8508 -19.9491,-17.18371 -36.2387,-2.84848 -36.2387,-2.84848 0,0 -0.6499,2.5309 5.2132,3.90872 3.2638,0.76709 -3.8012,-7.42168 0,-4.56343 17.9166,-0.64982 23.0517,26.53533 20.5208,44.30047 -21.1706,59.76923 -16.2847,106.51248 -16.2847,106.51248 0,0 -44.3003,-30.94225 -65.7983,-27.36088 -3.9087,17.58908 47.1488,64.49373 47.1488,64.49373 1.7101,-2.55533 -48.126,-5.1302 -66.6924,5.37449 4.0309,-1.0407 -23.4279,31.00593 -32.0026,33.22413 0.9625,1.20193 -6.3517,3.40059 -39.0872,9.52751 -16.8857,5.16439 -16.446,10.4998 -19.0551,11.72616 -2.311,-3.78658 -6.1904,14.08117 -5.1302,17.10065 1.4658,11.97046 9.2833,3.66443 9.2833,3.66443 z m 108.467,-98.9395" />
    <path
       transform="matrix(1.6182401,0,0,1.6182401,-1380.1645,-356.58641)"
       style="display:inline;fill:#08082d;fill-opacity:1;stroke:none"
       inkscape:connector-curvature="0"
       id="leaves"
       d="m 2274.4748,504.88054 c 0,0 61.247,-20.08507 57.7755,-18.84525 -10.9103,9.42259 -27.7718,25.04433 -49.0967,57.77553 0,0 -51.0805,35.45879 -63.4787,21.07695 -11.4061,-11.40633 54.7999,-60.00723 54.7999,-60.00723 z m 0.4959,-122.24593 c 0,0 -46.1212,-40.66606 -48.6008,-65.21446 21.0769,-6.1991 67.4461,26.78007 68.9338,28.26786 3.9676,11.90225 24.5483,35.21083 40.9141,60.50296 -40.1702,-12.89411 -61.2471,-23.55636 -61.2471,-23.55636 z m 138.1158,135.14003 c -3.9674,4.46333 7.4389,60.00721 7.4389,60.00721 0,0 31.2433,71.66131 51.3283,62.98265 14.3819,-1.48786 -14.382,-66.45414 -18.5973,-83.31568 -4.959,-6.44707 -31.2433,-39.67418 -40.1699,-39.67418 z m 43.1455,-65.95836 c -1.9839,5.45522 39.1782,16.61354 39.1782,16.61354 0,0 96.7059,-1.7357 95.2181,-19.09317 2.4796,-12.39818 -92.2426,-17.10949 -92.2426,-17.10949 0,0 -44.6333,15.12579 -42.1537,19.58912 z m -42.1536,-62.48684 c 9.4227,1.48779 37.9383,-42.89754 60.2549,-59.26314 0,0 18.5972,-26.28414 9.1747,-62.23889 -23.3086,2.72761 -66.4542,83.06784 -66.4542,83.06784 0,0 -6.447,25.54025 -2.9754,38.43419 z" />
  </g>
</svg>
